<mxfile host="app.diagrams.net" modified="2022-09-01T02:40:23.910Z" agent="5.0 (Windows)" etag="40k7jR-iSuG_Ff6gMN4R" version="20.2.7" type="github">
  <diagram id="4PT_vkWamiO-nSXqBPPG" name="PÃ¡gina-1">
    <mxGraphModel dx="1381" dy="724" grid="0" gridSize="10" guides="0" tooltips="1" connect="1" arrows="1" fold="1" page="1" pageScale="1" pageWidth="827" pageHeight="1169" background="none" math="0" shadow="0">
      <root>
        <mxCell id="0" />
        <mxCell id="1" parent="0" />
        <mxCell id="nCWuup4R4AbDnW3DWiKd-3" style="edgeStyle=orthogonalEdgeStyle;rounded=0;orthogonalLoop=1;jettySize=auto;html=1;startArrow=none;" parent="1" source="66M02JN2FrkitM-om0R4-26" edge="1">
          <mxGeometry relative="1" as="geometry">
            <mxPoint x="414" y="375" as="targetPoint" />
            <Array as="points">
              <mxPoint x="420" y="220" />
              <mxPoint x="414" y="220" />
            </Array>
          </mxGeometry>
        </mxCell>
        <mxCell id="QRhNImlcriRFlgjVjBWK-16" value="" style="edgeStyle=orthogonalEdgeStyle;rounded=0;orthogonalLoop=1;jettySize=auto;html=1;" edge="1" parent="1" source="S0YFLjFQys3BDrwnXeZM-1" target="66M02JN2FrkitM-om0R4-26">
          <mxGeometry relative="1" as="geometry">
            <Array as="points">
              <mxPoint x="415" y="90" />
              <mxPoint x="415" y="90" />
            </Array>
          </mxGeometry>
        </mxCell>
        <mxCell id="QRhNImlcriRFlgjVjBWK-23" style="edgeStyle=orthogonalEdgeStyle;rounded=0;orthogonalLoop=1;jettySize=auto;html=1;fontSize=10;" edge="1" parent="1" source="S0YFLjFQys3BDrwnXeZM-1" target="66M02JN2FrkitM-om0R4-24">
          <mxGeometry relative="1" as="geometry">
            <Array as="points">
              <mxPoint x="677" y="35" />
            </Array>
          </mxGeometry>
        </mxCell>
        <mxCell id="S0YFLjFQys3BDrwnXeZM-1" value="hortalizas" style="rounded=1;whiteSpace=wrap;html=1;fillColor=#FF0000;strokeColor=#b85450;gradientColor=none;glass=0;shadow=0;sketch=0;perimeterSpacing=7;" parent="1" vertex="1">
          <mxGeometry x="310" y="10" width="230" height="50" as="geometry" />
        </mxCell>
        <mxCell id="nCWuup4R4AbDnW3DWiKd-10" value="" style="edgeStyle=orthogonalEdgeStyle;rounded=0;orthogonalLoop=1;jettySize=auto;html=1;entryX=0.5;entryY=0;entryDx=0;entryDy=0;" parent="1" source="nCWuup4R4AbDnW3DWiKd-4" target="nCWuup4R4AbDnW3DWiKd-9" edge="1">
          <mxGeometry relative="1" as="geometry">
            <mxPoint x="80" y="435" as="targetPoint" />
          </mxGeometry>
        </mxCell>
        <mxCell id="nCWuup4R4AbDnW3DWiKd-4" value="Familia" style="shape=parallelogram;perimeter=parallelogramPerimeter;whiteSpace=wrap;html=1;fixedSize=1;shadow=0;glass=0;sketch=0;fillColor=#FF0000;gradientColor=none;" parent="1" vertex="1">
          <mxGeometry x="50" y="380" width="150" height="25" as="geometry" />
        </mxCell>
        <mxCell id="QRhNImlcriRFlgjVjBWK-73" value="" style="edgeStyle=orthogonalEdgeStyle;rounded=0;orthogonalLoop=1;jettySize=auto;html=1;fontSize=12;" edge="1" parent="1" source="nCWuup4R4AbDnW3DWiKd-6" target="QRhNImlcriRFlgjVjBWK-64">
          <mxGeometry relative="1" as="geometry" />
        </mxCell>
        <mxCell id="nCWuup4R4AbDnW3DWiKd-6" value="&amp;nbsp;Por su uso" style="shape=parallelogram;perimeter=parallelogramPerimeter;whiteSpace=wrap;html=1;fixedSize=1;shadow=0;glass=0;sketch=0;fillColor=#FF0000;gradientColor=none;" parent="1" vertex="1">
          <mxGeometry x="990" y="118" width="100" height="30" as="geometry" />
        </mxCell>
        <mxCell id="nCWuup4R4AbDnW3DWiKd-51" value="" style="edgeStyle=orthogonalEdgeStyle;rounded=0;orthogonalLoop=1;jettySize=auto;html=1;" parent="1" source="nCWuup4R4AbDnW3DWiKd-7" target="nCWuup4R4AbDnW3DWiKd-50" edge="1">
          <mxGeometry relative="1" as="geometry" />
        </mxCell>
        <mxCell id="nCWuup4R4AbDnW3DWiKd-7" value="&lt;div style=&quot;font-size: 12px;&quot;&gt;&lt;font style=&quot;font-size: 12px;&quot;&gt;Parte comestible&lt;/font&gt;&lt;/div&gt;" style="shape=parallelogram;perimeter=parallelogramPerimeter;whiteSpace=wrap;html=1;fixedSize=1;shadow=0;glass=0;sketch=0;fillColor=#FF0000;gradientColor=none;align=center;verticalAlign=bottom;horizontal=1;fontSize=13;labelBackgroundColor=none;labelBorderColor=none;" parent="1" vertex="1">
          <mxGeometry x="310" y="380" width="170" height="30" as="geometry" />
        </mxCell>
        <mxCell id="nCWuup4R4AbDnW3DWiKd-8" style="edgeStyle=orthogonalEdgeStyle;rounded=0;orthogonalLoop=1;jettySize=auto;html=1;exitX=0.5;exitY=1;exitDx=0;exitDy=0;" parent="1" source="nCWuup4R4AbDnW3DWiKd-6" target="nCWuup4R4AbDnW3DWiKd-6" edge="1">
          <mxGeometry relative="1" as="geometry" />
        </mxCell>
        <mxCell id="nCWuup4R4AbDnW3DWiKd-14" value="" style="edgeStyle=orthogonalEdgeStyle;rounded=0;orthogonalLoop=1;jettySize=auto;html=1;fillColor=#d5e8d4;strokeColor=#82b366;" parent="1" source="nCWuup4R4AbDnW3DWiKd-9" target="nCWuup4R4AbDnW3DWiKd-13" edge="1">
          <mxGeometry relative="1" as="geometry" />
        </mxCell>
        <mxCell id="nCWuup4R4AbDnW3DWiKd-130" value="" style="edgeStyle=orthogonalEdgeStyle;rounded=0;orthogonalLoop=1;jettySize=auto;html=1;fontSize=13;fontColor=#000000;" parent="1" source="nCWuup4R4AbDnW3DWiKd-9" target="nCWuup4R4AbDnW3DWiKd-129" edge="1">
          <mxGeometry relative="1" as="geometry" />
        </mxCell>
        <mxCell id="nCWuup4R4AbDnW3DWiKd-9" value="&lt;div&gt;Alliaceae (Amaryllidaceae)&lt;/div&gt;" style="whiteSpace=wrap;html=1;fillColor=#FF0000;shadow=0;glass=0;sketch=0;gradientColor=none;" parent="1" vertex="1">
          <mxGeometry x="10" y="445" width="160" height="20" as="geometry" />
        </mxCell>
        <mxCell id="nCWuup4R4AbDnW3DWiKd-16" value="" style="edgeStyle=orthogonalEdgeStyle;rounded=0;orthogonalLoop=1;jettySize=auto;html=1;fillColor=#d5e8d4;strokeColor=#82b366;" parent="1" source="nCWuup4R4AbDnW3DWiKd-13" target="nCWuup4R4AbDnW3DWiKd-15" edge="1">
          <mxGeometry relative="1" as="geometry" />
        </mxCell>
        <mxCell id="nCWuup4R4AbDnW3DWiKd-132" value="" style="edgeStyle=orthogonalEdgeStyle;rounded=0;orthogonalLoop=1;jettySize=auto;html=1;fontSize=13;fontColor=#000000;" parent="1" source="nCWuup4R4AbDnW3DWiKd-13" target="nCWuup4R4AbDnW3DWiKd-131" edge="1">
          <mxGeometry relative="1" as="geometry" />
        </mxCell>
        <mxCell id="nCWuup4R4AbDnW3DWiKd-13" value="&lt;div&gt;Liliaceae&lt;/div&gt;" style="whiteSpace=wrap;html=1;fillColor=#FF0000;shadow=0;glass=0;sketch=0;gradientColor=none;" parent="1" vertex="1">
          <mxGeometry x="10" y="475" width="160" height="20" as="geometry" />
        </mxCell>
        <mxCell id="nCWuup4R4AbDnW3DWiKd-18" value="" style="edgeStyle=orthogonalEdgeStyle;rounded=0;orthogonalLoop=1;jettySize=auto;html=1;fillColor=#d5e8d4;strokeColor=#82b366;" parent="1" source="nCWuup4R4AbDnW3DWiKd-15" target="nCWuup4R4AbDnW3DWiKd-17" edge="1">
          <mxGeometry relative="1" as="geometry" />
        </mxCell>
        <mxCell id="nCWuup4R4AbDnW3DWiKd-134" value="" style="edgeStyle=orthogonalEdgeStyle;rounded=0;orthogonalLoop=1;jettySize=auto;html=1;fontSize=13;fontColor=#000000;" parent="1" source="nCWuup4R4AbDnW3DWiKd-15" target="nCWuup4R4AbDnW3DWiKd-133" edge="1">
          <mxGeometry relative="1" as="geometry" />
        </mxCell>
        <mxCell id="nCWuup4R4AbDnW3DWiKd-15" value="&lt;div&gt;Poaceae (Gramineae)&lt;/div&gt;" style="whiteSpace=wrap;html=1;fillColor=#FF0000;shadow=0;glass=0;sketch=0;gradientColor=none;" parent="1" vertex="1">
          <mxGeometry x="10" y="505" width="160" height="20" as="geometry" />
        </mxCell>
        <mxCell id="nCWuup4R4AbDnW3DWiKd-20" value="" style="edgeStyle=orthogonalEdgeStyle;rounded=0;orthogonalLoop=1;jettySize=auto;html=1;fillColor=#d5e8d4;strokeColor=#82b366;" parent="1" source="nCWuup4R4AbDnW3DWiKd-17" target="nCWuup4R4AbDnW3DWiKd-19" edge="1">
          <mxGeometry relative="1" as="geometry" />
        </mxCell>
        <mxCell id="nCWuup4R4AbDnW3DWiKd-136" value="" style="edgeStyle=orthogonalEdgeStyle;rounded=0;orthogonalLoop=1;jettySize=auto;html=1;fontSize=13;fontColor=#000000;" parent="1" source="nCWuup4R4AbDnW3DWiKd-17" target="nCWuup4R4AbDnW3DWiKd-135" edge="1">
          <mxGeometry relative="1" as="geometry" />
        </mxCell>
        <mxCell id="nCWuup4R4AbDnW3DWiKd-17" value="Apiaceae (Umbelliferae)" style="whiteSpace=wrap;html=1;fillColor=#FF0000;shadow=0;glass=0;sketch=0;gradientColor=none;" parent="1" vertex="1">
          <mxGeometry x="10" y="535" width="160" height="20" as="geometry" />
        </mxCell>
        <mxCell id="nCWuup4R4AbDnW3DWiKd-23" value="" style="edgeStyle=orthogonalEdgeStyle;rounded=0;orthogonalLoop=1;jettySize=auto;html=1;fillColor=#d5e8d4;strokeColor=#82b366;" parent="1" source="nCWuup4R4AbDnW3DWiKd-19" target="nCWuup4R4AbDnW3DWiKd-22" edge="1">
          <mxGeometry relative="1" as="geometry" />
        </mxCell>
        <mxCell id="nCWuup4R4AbDnW3DWiKd-138" value="" style="edgeStyle=orthogonalEdgeStyle;rounded=0;orthogonalLoop=1;jettySize=auto;html=1;fontSize=13;fontColor=#000000;" parent="1" source="nCWuup4R4AbDnW3DWiKd-19" target="nCWuup4R4AbDnW3DWiKd-137" edge="1">
          <mxGeometry relative="1" as="geometry" />
        </mxCell>
        <mxCell id="nCWuup4R4AbDnW3DWiKd-19" value="Asteraceae (Compositae)" style="whiteSpace=wrap;html=1;fillColor=#FF0000;shadow=0;glass=0;sketch=0;gradientColor=none;" parent="1" vertex="1">
          <mxGeometry x="10" y="565" width="160" height="20" as="geometry" />
        </mxCell>
        <mxCell id="nCWuup4R4AbDnW3DWiKd-25" value="" style="edgeStyle=orthogonalEdgeStyle;rounded=0;orthogonalLoop=1;jettySize=auto;html=1;fillColor=#d5e8d4;strokeColor=#82b366;" parent="1" source="nCWuup4R4AbDnW3DWiKd-22" target="nCWuup4R4AbDnW3DWiKd-24" edge="1">
          <mxGeometry relative="1" as="geometry" />
        </mxCell>
        <mxCell id="nCWuup4R4AbDnW3DWiKd-140" value="" style="edgeStyle=orthogonalEdgeStyle;rounded=0;orthogonalLoop=1;jettySize=auto;html=1;fontSize=13;fontColor=#000000;" parent="1" source="nCWuup4R4AbDnW3DWiKd-22" target="nCWuup4R4AbDnW3DWiKd-139" edge="1">
          <mxGeometry relative="1" as="geometry" />
        </mxCell>
        <mxCell id="nCWuup4R4AbDnW3DWiKd-22" value="&lt;div&gt;Brassicaceae (Cruciferae)&lt;/div&gt;" style="whiteSpace=wrap;html=1;fillColor=#FF0000;shadow=0;glass=0;sketch=0;gradientColor=none;" parent="1" vertex="1">
          <mxGeometry x="10" y="595" width="160" height="20" as="geometry" />
        </mxCell>
        <mxCell id="nCWuup4R4AbDnW3DWiKd-27" value="" style="edgeStyle=orthogonalEdgeStyle;rounded=0;orthogonalLoop=1;jettySize=auto;html=1;fillColor=#d5e8d4;strokeColor=#82b366;" parent="1" source="nCWuup4R4AbDnW3DWiKd-24" target="nCWuup4R4AbDnW3DWiKd-26" edge="1">
          <mxGeometry relative="1" as="geometry" />
        </mxCell>
        <mxCell id="nCWuup4R4AbDnW3DWiKd-142" value="" style="edgeStyle=orthogonalEdgeStyle;rounded=0;orthogonalLoop=1;jettySize=auto;html=1;fontSize=13;fontColor=#000000;" parent="1" source="nCWuup4R4AbDnW3DWiKd-24" target="nCWuup4R4AbDnW3DWiKd-141" edge="1">
          <mxGeometry relative="1" as="geometry" />
        </mxCell>
        <mxCell id="nCWuup4R4AbDnW3DWiKd-24" value="&lt;div&gt;Capparidaceae&lt;/div&gt;" style="whiteSpace=wrap;html=1;fillColor=#FF0000;shadow=0;glass=0;sketch=0;gradientColor=none;" parent="1" vertex="1">
          <mxGeometry x="10" y="625" width="160" height="20" as="geometry" />
        </mxCell>
        <mxCell id="nCWuup4R4AbDnW3DWiKd-29" value="" style="edgeStyle=orthogonalEdgeStyle;rounded=0;orthogonalLoop=1;jettySize=auto;html=1;fillColor=#d5e8d4;strokeColor=#82b366;" parent="1" source="nCWuup4R4AbDnW3DWiKd-26" target="nCWuup4R4AbDnW3DWiKd-28" edge="1">
          <mxGeometry relative="1" as="geometry" />
        </mxCell>
        <mxCell id="nCWuup4R4AbDnW3DWiKd-144" value="" style="edgeStyle=orthogonalEdgeStyle;rounded=0;orthogonalLoop=1;jettySize=auto;html=1;fontSize=13;fontColor=#000000;" parent="1" source="nCWuup4R4AbDnW3DWiKd-26" target="nCWuup4R4AbDnW3DWiKd-143" edge="1">
          <mxGeometry relative="1" as="geometry" />
        </mxCell>
        <mxCell id="nCWuup4R4AbDnW3DWiKd-26" value="Chenopodiaceae&lt;br&gt;" style="whiteSpace=wrap;html=1;fillColor=#FF0000;shadow=0;glass=0;sketch=0;gradientColor=none;" parent="1" vertex="1">
          <mxGeometry x="10" y="655" width="160" height="20" as="geometry" />
        </mxCell>
        <mxCell id="nCWuup4R4AbDnW3DWiKd-31" value="" style="edgeStyle=orthogonalEdgeStyle;rounded=0;orthogonalLoop=1;jettySize=auto;html=1;fillColor=#d5e8d4;strokeColor=#82b366;" parent="1" source="nCWuup4R4AbDnW3DWiKd-28" target="nCWuup4R4AbDnW3DWiKd-30" edge="1">
          <mxGeometry relative="1" as="geometry" />
        </mxCell>
        <mxCell id="nCWuup4R4AbDnW3DWiKd-146" value="" style="edgeStyle=orthogonalEdgeStyle;rounded=0;orthogonalLoop=1;jettySize=auto;html=1;fontSize=13;fontColor=#000000;" parent="1" source="nCWuup4R4AbDnW3DWiKd-28" target="nCWuup4R4AbDnW3DWiKd-145" edge="1">
          <mxGeometry relative="1" as="geometry" />
        </mxCell>
        <mxCell id="nCWuup4R4AbDnW3DWiKd-28" value="Convolvulaceae&lt;br&gt;" style="whiteSpace=wrap;html=1;fillColor=#FF0000;shadow=0;glass=0;sketch=0;gradientColor=none;" parent="1" vertex="1">
          <mxGeometry x="10" y="685" width="160" height="20" as="geometry" />
        </mxCell>
        <mxCell id="nCWuup4R4AbDnW3DWiKd-33" value="" style="edgeStyle=orthogonalEdgeStyle;rounded=0;orthogonalLoop=1;jettySize=auto;html=1;fillColor=#d5e8d4;strokeColor=#82b366;" parent="1" source="nCWuup4R4AbDnW3DWiKd-30" target="nCWuup4R4AbDnW3DWiKd-32" edge="1">
          <mxGeometry relative="1" as="geometry" />
        </mxCell>
        <mxCell id="nCWuup4R4AbDnW3DWiKd-150" value="" style="edgeStyle=orthogonalEdgeStyle;rounded=0;orthogonalLoop=1;jettySize=auto;html=1;fontSize=13;fontColor=#000000;" parent="1" source="nCWuup4R4AbDnW3DWiKd-30" target="nCWuup4R4AbDnW3DWiKd-148" edge="1">
          <mxGeometry relative="1" as="geometry" />
        </mxCell>
        <mxCell id="nCWuup4R4AbDnW3DWiKd-30" value="Cucurbitaceae&lt;br&gt;" style="whiteSpace=wrap;html=1;fillColor=#FF0000;shadow=0;glass=0;sketch=0;gradientColor=none;" parent="1" vertex="1">
          <mxGeometry x="10" y="715" width="160" height="20" as="geometry" />
        </mxCell>
        <mxCell id="nCWuup4R4AbDnW3DWiKd-75" value="" style="edgeStyle=orthogonalEdgeStyle;rounded=0;orthogonalLoop=1;jettySize=auto;html=1;fontSize=13;" parent="1" source="nCWuup4R4AbDnW3DWiKd-32" target="nCWuup4R4AbDnW3DWiKd-44" edge="1">
          <mxGeometry relative="1" as="geometry" />
        </mxCell>
        <mxCell id="nCWuup4R4AbDnW3DWiKd-152" value="" style="edgeStyle=orthogonalEdgeStyle;rounded=0;orthogonalLoop=1;jettySize=auto;html=1;fontSize=13;fontColor=#000000;" parent="1" source="nCWuup4R4AbDnW3DWiKd-32" target="nCWuup4R4AbDnW3DWiKd-151" edge="1">
          <mxGeometry relative="1" as="geometry" />
        </mxCell>
        <mxCell id="nCWuup4R4AbDnW3DWiKd-32" value="Fabaceae (Papilionaceae)" style="whiteSpace=wrap;html=1;fillColor=#FF0000;shadow=0;glass=0;sketch=0;gradientColor=none;" parent="1" vertex="1">
          <mxGeometry x="10" y="745" width="160" height="20" as="geometry" />
        </mxCell>
        <mxCell id="nCWuup4R4AbDnW3DWiKd-43" value="" style="edgeStyle=orthogonalEdgeStyle;rounded=0;orthogonalLoop=1;jettySize=auto;html=1;" parent="1" source="nCWuup4R4AbDnW3DWiKd-40" target="nCWuup4R4AbDnW3DWiKd-42" edge="1">
          <mxGeometry relative="1" as="geometry" />
        </mxCell>
        <mxCell id="nCWuup4R4AbDnW3DWiKd-40" value="Polygonaceae&lt;br&gt;" style="whiteSpace=wrap;html=1;fillColor=#FF0000;shadow=0;glass=0;sketch=0;gradientColor=none;" parent="1" vertex="1">
          <mxGeometry x="10" y="775" width="160" height="20" as="geometry" />
        </mxCell>
        <mxCell id="nCWuup4R4AbDnW3DWiKd-45" value="" style="edgeStyle=orthogonalEdgeStyle;rounded=0;orthogonalLoop=1;jettySize=auto;html=1;" parent="1" source="nCWuup4R4AbDnW3DWiKd-42" target="nCWuup4R4AbDnW3DWiKd-44" edge="1">
          <mxGeometry relative="1" as="geometry" />
        </mxCell>
        <mxCell id="nCWuup4R4AbDnW3DWiKd-42" value="Solanaceae&lt;br&gt;" style="whiteSpace=wrap;html=1;fillColor=#FF0000;shadow=0;glass=0;sketch=0;gradientColor=none;" parent="1" vertex="1">
          <mxGeometry x="10" y="805" width="160" height="20" as="geometry" />
        </mxCell>
        <mxCell id="nCWuup4R4AbDnW3DWiKd-79" value="" style="edgeStyle=orthogonalEdgeStyle;rounded=0;orthogonalLoop=1;jettySize=auto;html=1;fontSize=13;" parent="1" source="nCWuup4R4AbDnW3DWiKd-44" target="nCWuup4R4AbDnW3DWiKd-78" edge="1">
          <mxGeometry relative="1" as="geometry" />
        </mxCell>
        <mxCell id="nCWuup4R4AbDnW3DWiKd-44" value="Valerianaceae&lt;br&gt;" style="whiteSpace=wrap;html=1;fillColor=#FF0000;shadow=0;glass=0;sketch=0;gradientColor=none;" parent="1" vertex="1">
          <mxGeometry x="10" y="835" width="160" height="20" as="geometry" />
        </mxCell>
        <mxCell id="nCWuup4R4AbDnW3DWiKd-53" value="" style="edgeStyle=orthogonalEdgeStyle;rounded=0;orthogonalLoop=1;jettySize=auto;html=1;" parent="1" source="nCWuup4R4AbDnW3DWiKd-50" target="nCWuup4R4AbDnW3DWiKd-52" edge="1">
          <mxGeometry relative="1" as="geometry" />
        </mxCell>
        <mxCell id="nCWuup4R4AbDnW3DWiKd-89" value="" style="edgeStyle=orthogonalEdgeStyle;rounded=0;orthogonalLoop=1;jettySize=auto;html=1;fontSize=13;" parent="1" source="nCWuup4R4AbDnW3DWiKd-50" target="nCWuup4R4AbDnW3DWiKd-88" edge="1">
          <mxGeometry relative="1" as="geometry" />
        </mxCell>
        <mxCell id="nCWuup4R4AbDnW3DWiKd-50" value="RaÃ­z Nabo&amp;nbsp; " style="whiteSpace=wrap;html=1;fillColor=#FF0000;shadow=0;glass=0;sketch=0;gradientColor=none;" parent="1" vertex="1">
          <mxGeometry x="287" y="436" width="110" height="20" as="geometry" />
        </mxCell>
        <mxCell id="nCWuup4R4AbDnW3DWiKd-55" value="" style="edgeStyle=orthogonalEdgeStyle;rounded=0;orthogonalLoop=1;jettySize=auto;html=1;" parent="1" source="nCWuup4R4AbDnW3DWiKd-52" target="nCWuup4R4AbDnW3DWiKd-54" edge="1">
          <mxGeometry relative="1" as="geometry" />
        </mxCell>
        <mxCell id="nCWuup4R4AbDnW3DWiKd-93" value="" style="edgeStyle=orthogonalEdgeStyle;rounded=0;orthogonalLoop=1;jettySize=auto;html=1;fontSize=13;" parent="1" source="nCWuup4R4AbDnW3DWiKd-52" target="nCWuup4R4AbDnW3DWiKd-92" edge="1">
          <mxGeometry relative="1" as="geometry" />
        </mxCell>
        <mxCell id="nCWuup4R4AbDnW3DWiKd-52" value="TubÃ©rculo&amp;nbsp;&amp;nbsp; " style="whiteSpace=wrap;html=1;fillColor=#FF0000;shadow=0;glass=0;sketch=0;gradientColor=none;" parent="1" vertex="1">
          <mxGeometry x="287" y="466" width="110" height="20" as="geometry" />
        </mxCell>
        <mxCell id="nCWuup4R4AbDnW3DWiKd-57" value="" style="edgeStyle=orthogonalEdgeStyle;rounded=0;orthogonalLoop=1;jettySize=auto;html=1;" parent="1" source="nCWuup4R4AbDnW3DWiKd-54" target="nCWuup4R4AbDnW3DWiKd-56" edge="1">
          <mxGeometry relative="1" as="geometry" />
        </mxCell>
        <mxCell id="nCWuup4R4AbDnW3DWiKd-96" value="" style="edgeStyle=orthogonalEdgeStyle;rounded=0;orthogonalLoop=1;jettySize=auto;html=1;fontSize=13;" parent="1" source="nCWuup4R4AbDnW3DWiKd-54" target="nCWuup4R4AbDnW3DWiKd-95" edge="1">
          <mxGeometry relative="1" as="geometry" />
        </mxCell>
        <mxCell id="nCWuup4R4AbDnW3DWiKd-54" value="Tallo. &amp;nbsp;" style="whiteSpace=wrap;html=1;fillColor=#FF0000;shadow=0;glass=0;sketch=0;gradientColor=none;" parent="1" vertex="1">
          <mxGeometry x="287" y="496" width="110" height="20" as="geometry" />
        </mxCell>
        <mxCell id="nCWuup4R4AbDnW3DWiKd-59" value="" style="edgeStyle=orthogonalEdgeStyle;rounded=0;orthogonalLoop=1;jettySize=auto;html=1;" parent="1" source="nCWuup4R4AbDnW3DWiKd-56" target="nCWuup4R4AbDnW3DWiKd-58" edge="1">
          <mxGeometry relative="1" as="geometry" />
        </mxCell>
        <mxCell id="nCWuup4R4AbDnW3DWiKd-109" value="" style="edgeStyle=orthogonalEdgeStyle;rounded=0;orthogonalLoop=1;jettySize=auto;html=1;fontSize=13;" parent="1" source="nCWuup4R4AbDnW3DWiKd-56" target="nCWuup4R4AbDnW3DWiKd-98" edge="1">
          <mxGeometry relative="1" as="geometry" />
        </mxCell>
        <mxCell id="nCWuup4R4AbDnW3DWiKd-56" value="Bulbo. &amp;nbsp;" style="whiteSpace=wrap;html=1;fillColor=#FF0000;shadow=0;glass=0;sketch=0;gradientColor=none;" parent="1" vertex="1">
          <mxGeometry x="287" y="526" width="110" height="20" as="geometry" />
        </mxCell>
        <mxCell id="nCWuup4R4AbDnW3DWiKd-64" value="" style="edgeStyle=orthogonalEdgeStyle;rounded=0;orthogonalLoop=1;jettySize=auto;html=1;fontSize=13;" parent="1" source="nCWuup4R4AbDnW3DWiKd-58" target="nCWuup4R4AbDnW3DWiKd-63" edge="1">
          <mxGeometry relative="1" as="geometry" />
        </mxCell>
        <mxCell id="nCWuup4R4AbDnW3DWiKd-111" value="" style="edgeStyle=orthogonalEdgeStyle;rounded=0;orthogonalLoop=1;jettySize=auto;html=1;fontSize=13;" parent="1" source="nCWuup4R4AbDnW3DWiKd-58" target="nCWuup4R4AbDnW3DWiKd-110" edge="1">
          <mxGeometry relative="1" as="geometry" />
        </mxCell>
        <mxCell id="nCWuup4R4AbDnW3DWiKd-58" value="Hoja.&amp;nbsp; " style="whiteSpace=wrap;html=1;fillColor=#FF0000;shadow=0;glass=0;sketch=0;gradientColor=none;" parent="1" vertex="1">
          <mxGeometry x="287" y="556" width="110" height="20" as="geometry" />
        </mxCell>
        <mxCell id="nCWuup4R4AbDnW3DWiKd-66" value="" style="edgeStyle=orthogonalEdgeStyle;rounded=0;orthogonalLoop=1;jettySize=auto;html=1;fontSize=13;" parent="1" source="nCWuup4R4AbDnW3DWiKd-63" target="nCWuup4R4AbDnW3DWiKd-65" edge="1">
          <mxGeometry relative="1" as="geometry" />
        </mxCell>
        <mxCell id="nCWuup4R4AbDnW3DWiKd-113" value="" style="edgeStyle=orthogonalEdgeStyle;rounded=0;orthogonalLoop=1;jettySize=auto;html=1;fontSize=13;" parent="1" source="nCWuup4R4AbDnW3DWiKd-63" target="nCWuup4R4AbDnW3DWiKd-112" edge="1">
          <mxGeometry relative="1" as="geometry" />
        </mxCell>
        <mxCell id="nCWuup4R4AbDnW3DWiKd-63" value="PecÃ­olo. " style="whiteSpace=wrap;html=1;fillColor=#FF0000;shadow=0;glass=0;sketch=0;gradientColor=none;" parent="1" vertex="1">
          <mxGeometry x="287" y="586" width="110" height="20" as="geometry" />
        </mxCell>
        <mxCell id="nCWuup4R4AbDnW3DWiKd-68" value="" style="edgeStyle=orthogonalEdgeStyle;rounded=0;orthogonalLoop=1;jettySize=auto;html=1;fontSize=13;" parent="1" source="nCWuup4R4AbDnW3DWiKd-65" target="nCWuup4R4AbDnW3DWiKd-67" edge="1">
          <mxGeometry relative="1" as="geometry" />
        </mxCell>
        <mxCell id="nCWuup4R4AbDnW3DWiKd-115" value="" style="edgeStyle=orthogonalEdgeStyle;rounded=0;orthogonalLoop=1;jettySize=auto;html=1;fontSize=13;" parent="1" source="nCWuup4R4AbDnW3DWiKd-65" target="nCWuup4R4AbDnW3DWiKd-114" edge="1">
          <mxGeometry relative="1" as="geometry" />
        </mxCell>
        <mxCell id="nCWuup4R4AbDnW3DWiKd-65" value="Inflorescencia " style="whiteSpace=wrap;html=1;fillColor=#FF0000;shadow=0;glass=0;sketch=0;gradientColor=none;" parent="1" vertex="1">
          <mxGeometry x="287" y="616" width="110" height="20" as="geometry" />
        </mxCell>
        <mxCell id="nCWuup4R4AbDnW3DWiKd-70" value="" style="edgeStyle=orthogonalEdgeStyle;rounded=0;orthogonalLoop=1;jettySize=auto;html=1;fontSize=13;" parent="1" source="nCWuup4R4AbDnW3DWiKd-67" target="nCWuup4R4AbDnW3DWiKd-69" edge="1">
          <mxGeometry relative="1" as="geometry" />
        </mxCell>
        <mxCell id="nCWuup4R4AbDnW3DWiKd-117" value="" style="edgeStyle=orthogonalEdgeStyle;rounded=0;orthogonalLoop=1;jettySize=auto;html=1;fontSize=13;" parent="1" source="nCWuup4R4AbDnW3DWiKd-67" target="nCWuup4R4AbDnW3DWiKd-116" edge="1">
          <mxGeometry relative="1" as="geometry" />
        </mxCell>
        <mxCell id="nCWuup4R4AbDnW3DWiKd-67" value="Fruto inmaduro&amp;nbsp;&amp;nbsp; " style="whiteSpace=wrap;html=1;fillColor=#FF0000;shadow=0;glass=0;sketch=0;gradientColor=none;" parent="1" vertex="1">
          <mxGeometry x="287" y="646" width="110" height="20" as="geometry" />
        </mxCell>
        <mxCell id="nCWuup4R4AbDnW3DWiKd-73" value="" style="edgeStyle=orthogonalEdgeStyle;rounded=0;orthogonalLoop=1;jettySize=auto;html=1;fontSize=13;" parent="1" source="nCWuup4R4AbDnW3DWiKd-69" target="nCWuup4R4AbDnW3DWiKd-72" edge="1">
          <mxGeometry relative="1" as="geometry" />
        </mxCell>
        <mxCell id="nCWuup4R4AbDnW3DWiKd-123" value="" style="edgeStyle=orthogonalEdgeStyle;rounded=0;orthogonalLoop=1;jettySize=auto;html=1;fontSize=13;" parent="1" source="nCWuup4R4AbDnW3DWiKd-69" target="nCWuup4R4AbDnW3DWiKd-118" edge="1">
          <mxGeometry relative="1" as="geometry" />
        </mxCell>
        <mxCell id="nCWuup4R4AbDnW3DWiKd-69" value="Fruto maduro&amp;nbsp;&amp;nbsp; " style="whiteSpace=wrap;html=1;fillColor=#FF0000;shadow=0;glass=0;sketch=0;gradientColor=none;" parent="1" vertex="1">
          <mxGeometry x="287" y="676" width="110" height="20" as="geometry" />
        </mxCell>
        <mxCell id="nCWuup4R4AbDnW3DWiKd-126" value="" style="edgeStyle=orthogonalEdgeStyle;rounded=0;orthogonalLoop=1;jettySize=auto;html=1;fontSize=13;" parent="1" source="nCWuup4R4AbDnW3DWiKd-72" target="nCWuup4R4AbDnW3DWiKd-125" edge="1">
          <mxGeometry relative="1" as="geometry" />
        </mxCell>
        <mxCell id="nCWuup4R4AbDnW3DWiKd-72" value="Semilla inmadura " style="whiteSpace=wrap;html=1;fillColor=#FF0000;shadow=0;glass=0;sketch=0;gradientColor=none;" parent="1" vertex="1">
          <mxGeometry x="287" y="706" width="110" height="20" as="geometry" />
        </mxCell>
        <mxCell id="nCWuup4R4AbDnW3DWiKd-78" value="Malvaceae&lt;br&gt;" style="whiteSpace=wrap;html=1;fillColor=#FF0000;shadow=0;glass=0;sketch=0;gradientColor=none;" parent="1" vertex="1">
          <mxGeometry x="10" y="865" width="160" height="20" as="geometry" />
        </mxCell>
        <mxCell id="nCWuup4R4AbDnW3DWiKd-88" value="zanahoria.&lt;br&gt;" style="shape=parallelogram;perimeter=parallelogramPerimeter;whiteSpace=wrap;html=1;fixedSize=1;fillColor=#00FF00;shadow=0;glass=0;sketch=0;gradientColor=none;fontColor=#000000;" parent="1" vertex="1">
          <mxGeometry x="407" y="436" width="150" height="20" as="geometry" />
        </mxCell>
        <mxCell id="nCWuup4R4AbDnW3DWiKd-92" value="Papa.&lt;br&gt;" style="shape=parallelogram;perimeter=parallelogramPerimeter;whiteSpace=wrap;html=1;fixedSize=1;fillColor=#00FF00;shadow=0;glass=0;sketch=0;gradientColor=none;" parent="1" vertex="1">
          <mxGeometry x="407" y="466" width="150" height="20" as="geometry" />
        </mxCell>
        <mxCell id="nCWuup4R4AbDnW3DWiKd-95" value="EspÃ¡rrago.&lt;br&gt;" style="shape=parallelogram;perimeter=parallelogramPerimeter;whiteSpace=wrap;html=1;fixedSize=1;shadow=0;glass=0;labelBackgroundColor=none;labelBorderColor=none;sketch=0;fontSize=13;fillColor=#00FF00;gradientColor=none;" parent="1" vertex="1">
          <mxGeometry x="407" y="496" width="150" height="20" as="geometry" />
        </mxCell>
        <mxCell id="nCWuup4R4AbDnW3DWiKd-98" value="Ajo, cebolla. " style="shape=parallelogram;perimeter=parallelogramPerimeter;whiteSpace=wrap;html=1;fixedSize=1;shadow=0;glass=0;labelBackgroundColor=none;labelBorderColor=none;sketch=0;fontSize=13;fillColor=#00FF00;gradientColor=none;" parent="1" vertex="1">
          <mxGeometry x="407" y="526" width="150" height="20" as="geometry" />
        </mxCell>
        <mxCell id="nCWuup4R4AbDnW3DWiKd-110" value="espinaca, lechuga.&lt;br&gt;" style="shape=parallelogram;perimeter=parallelogramPerimeter;whiteSpace=wrap;html=1;fixedSize=1;shadow=0;glass=0;labelBackgroundColor=none;labelBorderColor=none;sketch=0;fontSize=13;fillColor=#00FF00;gradientColor=none;" parent="1" vertex="1">
          <mxGeometry x="407" y="556" width="150" height="20" as="geometry" />
        </mxCell>
        <mxCell id="nCWuup4R4AbDnW3DWiKd-112" value="Apio.&lt;br&gt;" style="shape=parallelogram;perimeter=parallelogramPerimeter;whiteSpace=wrap;html=1;fixedSize=1;shadow=0;glass=0;labelBackgroundColor=none;labelBorderColor=none;sketch=0;fontSize=13;fillColor=#00FF00;gradientColor=none;" parent="1" vertex="1">
          <mxGeometry x="407" y="586" width="150" height="20" as="geometry" />
        </mxCell>
        <mxCell id="nCWuup4R4AbDnW3DWiKd-114" value="Alcachofa,coliflor. &amp;nbsp;&lt;br&gt;" style="shape=parallelogram;perimeter=parallelogramPerimeter;whiteSpace=wrap;html=1;fixedSize=1;shadow=0;glass=0;labelBackgroundColor=none;labelBorderColor=none;sketch=0;fontSize=13;fillColor=#00FF00;gradientColor=none;" parent="1" vertex="1">
          <mxGeometry x="407" y="616" width="150" height="20" as="geometry" />
        </mxCell>
        <mxCell id="nCWuup4R4AbDnW3DWiKd-116" value="AjÃ­, pepino, pimiento.&lt;br&gt;" style="shape=parallelogram;perimeter=parallelogramPerimeter;whiteSpace=wrap;html=1;fixedSize=1;shadow=0;glass=0;labelBackgroundColor=none;labelBorderColor=none;sketch=0;fontSize=13;fillColor=#00FF00;gradientColor=none;" parent="1" vertex="1">
          <mxGeometry x="407" y="646" width="150" height="20" as="geometry" />
        </mxCell>
        <mxCell id="nCWuup4R4AbDnW3DWiKd-118" value="Berenjena, tomate." style="shape=parallelogram;perimeter=parallelogramPerimeter;whiteSpace=wrap;html=1;fixedSize=1;shadow=0;glass=0;labelBackgroundColor=none;labelBorderColor=none;sketch=0;fontSize=13;fillColor=#00FF00;gradientColor=none;" parent="1" vertex="1">
          <mxGeometry x="407" y="676" width="150" height="20" as="geometry" />
        </mxCell>
        <mxCell id="nCWuup4R4AbDnW3DWiKd-125" value="Arveja.&lt;br&gt;" style="shape=parallelogram;perimeter=parallelogramPerimeter;whiteSpace=wrap;html=1;fixedSize=1;shadow=0;glass=0;labelBackgroundColor=none;labelBorderColor=none;sketch=0;fontSize=13;fillColor=#00FF00;gradientColor=none;" parent="1" vertex="1">
          <mxGeometry x="407" y="706" width="150" height="20" as="geometry" />
        </mxCell>
        <mxCell id="nCWuup4R4AbDnW3DWiKd-129" value="&lt;span dir=&quot;ltr&quot; role=&quot;presentation&quot; style=&quot;left: 495.945px; top: 643.777px; font-size: 12.2353px; font-family: sans-serif; transform: scaleX(1.11684);&quot;&gt;Ajo&lt;/span&gt;" style="shape=parallelogram;perimeter=parallelogramPerimeter;whiteSpace=wrap;html=1;fixedSize=1;shadow=0;glass=0;labelBackgroundColor=none;labelBorderColor=none;sketch=0;fontSize=13;fontColor=#000000;strokeColor=#000000;fillColor=#FFFF00;gradientColor=none;" parent="1" vertex="1">
          <mxGeometry x="190" y="445" width="77" height="20" as="geometry" />
        </mxCell>
        <mxCell id="nCWuup4R4AbDnW3DWiKd-131" value="&lt;span dir=&quot;ltr&quot; role=&quot;presentation&quot; style=&quot;left: 495.95px; top: 85.0318px; font-size: 12.2353px; font-family: sans-serif; transform: scaleX(1.07486);&quot;&gt;EspÃ¡rrago&lt;/span&gt;" style="shape=parallelogram;perimeter=parallelogramPerimeter;whiteSpace=wrap;html=1;fixedSize=1;shadow=0;glass=0;labelBackgroundColor=none;labelBorderColor=none;sketch=0;fontSize=13;fontColor=#000000;strokeColor=#000000;fillColor=#FFFF00;gradientColor=none;" parent="1" vertex="1">
          <mxGeometry x="190" y="475" width="87" height="20" as="geometry" />
        </mxCell>
        <mxCell id="nCWuup4R4AbDnW3DWiKd-133" value="&lt;span dir=&quot;ltr&quot; role=&quot;presentation&quot; style=&quot;left: 495.95px; top: 128.875px; font-size: 12.2353px; font-family: sans-serif; transform: scaleX(1.07504);&quot;&gt;Choclo&lt;/span&gt;" style="shape=parallelogram;perimeter=parallelogramPerimeter;whiteSpace=wrap;html=1;fixedSize=1;shadow=0;glass=0;labelBackgroundColor=none;labelBorderColor=none;sketch=0;fontSize=13;fontColor=#000000;strokeColor=#000000;fillColor=#FFFF00;gradientColor=none;" parent="1" vertex="1">
          <mxGeometry x="190" y="505" width="77" height="20" as="geometry" />
        </mxCell>
        <mxCell id="nCWuup4R4AbDnW3DWiKd-135" value="&lt;span dir=&quot;ltr&quot; role=&quot;presentation&quot; style=&quot;left: 459.142px; top: 204.836px; font-size: 12.2353px; font-family: sans-serif; transform: scaleX(1.07175);&quot;&gt;Eneldo&lt;/span&gt;" style="shape=parallelogram;perimeter=parallelogramPerimeter;whiteSpace=wrap;html=1;fixedSize=1;shadow=0;glass=0;labelBackgroundColor=none;labelBorderColor=none;sketch=0;fontSize=13;fontColor=#000000;strokeColor=#000000;fillColor=#FFFF00;gradientColor=none;" parent="1" vertex="1">
          <mxGeometry x="190" y="535" width="75" height="20" as="geometry" />
        </mxCell>
        <mxCell id="nCWuup4R4AbDnW3DWiKd-137" value="&lt;span dir=&quot;ltr&quot; role=&quot;presentation&quot; style=&quot;left: 459.142px; top: 352.169px; font-size: 12.2353px; font-family: sans-serif; transform: scaleX(1.09102);&quot;&gt;Achicoria&lt;/span&gt;" style="shape=parallelogram;perimeter=parallelogramPerimeter;whiteSpace=wrap;html=1;fixedSize=1;shadow=0;glass=0;labelBackgroundColor=none;labelBorderColor=none;sketch=0;fontSize=13;fontColor=#000000;strokeColor=#000000;fillColor=#FFFF00;gradientColor=none;" parent="1" vertex="1">
          <mxGeometry x="190" y="565" width="83" height="20" as="geometry" />
        </mxCell>
        <mxCell id="nCWuup4R4AbDnW3DWiKd-139" value="&lt;span dir=&quot;ltr&quot; role=&quot;presentation&quot; style=&quot;left: 459.144px; top: 647.345px; font-size: 12.2353px; font-family: sans-serif; transform: scaleX(1.12999);&quot;&gt;Col berza&lt;/span&gt;" style="shape=parallelogram;perimeter=parallelogramPerimeter;whiteSpace=wrap;html=1;fixedSize=1;shadow=0;glass=0;labelBackgroundColor=none;labelBorderColor=none;sketch=0;fontSize=13;fontColor=#000000;strokeColor=#000000;fillColor=#FFFF00;gradientColor=none;" parent="1" vertex="1">
          <mxGeometry x="190" y="595" width="80" height="20" as="geometry" />
        </mxCell>
        <mxCell id="nCWuup4R4AbDnW3DWiKd-141" value="&lt;span dir=&quot;ltr&quot; role=&quot;presentation&quot; style=&quot;left: 459.142px; top: 99.8161px; font-size: 12.2353px; font-family: sans-serif; transform: scaleX(1.09607);&quot;&gt;Alcaparra&lt;/span&gt;" style="shape=parallelogram;perimeter=parallelogramPerimeter;whiteSpace=wrap;html=1;fixedSize=1;shadow=0;glass=0;labelBackgroundColor=none;labelBorderColor=none;sketch=0;fontSize=13;fontColor=#000000;strokeColor=#000000;fillColor=#FFFF00;gradientColor=none;" parent="1" vertex="1">
          <mxGeometry x="190" y="625" width="82" height="20" as="geometry" />
        </mxCell>
        <mxCell id="nCWuup4R4AbDnW3DWiKd-143" value="&lt;span dir=&quot;ltr&quot; role=&quot;presentation&quot; style=&quot;left: 459.142px; top: 143.659px; font-size: 12.2353px; font-family: sans-serif; transform: scaleX(1.06326);&quot;&gt;Acelga&lt;/span&gt;" style="shape=parallelogram;perimeter=parallelogramPerimeter;whiteSpace=wrap;html=1;fixedSize=1;shadow=0;glass=0;labelBackgroundColor=none;labelBorderColor=none;sketch=0;fontSize=13;fontColor=#000000;strokeColor=#000000;fillColor=#FFFF00;gradientColor=none;" parent="1" vertex="1">
          <mxGeometry x="190" y="655" width="73" height="20" as="geometry" />
        </mxCell>
        <mxCell id="nCWuup4R4AbDnW3DWiKd-145" value="&lt;span dir=&quot;ltr&quot; role=&quot;presentation&quot; style=&quot;left: 459.142px; top: 217.071px; font-size: 12.2353px; font-family: sans-serif; transform: scaleX(1.10145);&quot;&gt;Camote&lt;/span&gt;" style="shape=parallelogram;perimeter=parallelogramPerimeter;whiteSpace=wrap;html=1;fixedSize=1;shadow=0;glass=0;labelBackgroundColor=none;labelBorderColor=none;sketch=0;fontSize=13;fontColor=#000000;strokeColor=#000000;fillColor=#FFFF00;gradientColor=none;" parent="1" vertex="1">
          <mxGeometry x="190" y="685" width="74" height="20" as="geometry" />
        </mxCell>
        <mxCell id="nCWuup4R4AbDnW3DWiKd-148" value="&lt;span dir=&quot;ltr&quot; role=&quot;presentation&quot; style=&quot;left: 459.138px; top: 260.914px; font-size: 12.2353px; font-family: sans-serif; transform: scaleX(1.04723);&quot;&gt;SandÃ­a&lt;/span&gt;" style="shape=parallelogram;perimeter=parallelogramPerimeter;whiteSpace=wrap;html=1;fixedSize=1;shadow=0;glass=0;labelBackgroundColor=none;labelBorderColor=none;sketch=0;fontSize=13;fontColor=#000000;strokeColor=#000000;fillColor=#FFFF00;gradientColor=none;" parent="1" vertex="1">
          <mxGeometry x="190" y="715" width="73" height="20" as="geometry" />
        </mxCell>
        <mxCell id="nCWuup4R4AbDnW3DWiKd-151" value="&lt;span dir=&quot;ltr&quot; role=&quot;presentation&quot; style=&quot;left: 459.142px; top: 496.953px; font-size: 12.2353px; font-family: sans-serif; transform: scaleX(1.12995);&quot;&gt;Poroto soya&lt;/span&gt;" style="shape=parallelogram;perimeter=parallelogramPerimeter;whiteSpace=wrap;html=1;fixedSize=1;shadow=0;glass=0;labelBackgroundColor=none;labelBorderColor=none;sketch=0;fontSize=13;fontColor=#000000;strokeColor=#000000;fillColor=#FFFF00;gradientColor=none;" parent="1" vertex="1">
          <mxGeometry x="190" y="745" width="99" height="20" as="geometry" />
        </mxCell>
        <mxCell id="66M02JN2FrkitM-om0R4-6" value="&lt;span dir=&quot;ltr&quot; role=&quot;presentation&quot; style=&quot;left: 459.142px; top: 702.914px; font-size: 12.2353px; font-family: sans-serif; transform: scaleX(1.12095);&quot;&gt;Ruibarbo&lt;/span&gt;" style="shape=parallelogram;perimeter=parallelogramPerimeter;whiteSpace=wrap;html=1;fixedSize=1;shadow=0;glass=0;labelBackgroundColor=none;labelBorderColor=none;sketch=0;fontSize=13;fontColor=#000000;strokeColor=#000000;fillColor=#FFFF00;gradientColor=none;" parent="1" vertex="1">
          <mxGeometry x="190" y="775" width="84" height="20" as="geometry" />
        </mxCell>
        <mxCell id="66M02JN2FrkitM-om0R4-12" value="" style="edgeStyle=orthogonalEdgeStyle;rounded=0;orthogonalLoop=1;jettySize=auto;html=1;fontSize=13;fontColor=#000000;exitX=1;exitY=0.5;exitDx=0;exitDy=0;" parent="1" source="nCWuup4R4AbDnW3DWiKd-40" edge="1">
          <mxGeometry relative="1" as="geometry">
            <mxPoint x="180" y="764.9999999999999" as="sourcePoint" />
            <mxPoint x="200" y="785" as="targetPoint" />
          </mxGeometry>
        </mxCell>
        <mxCell id="66M02JN2FrkitM-om0R4-13" value="&lt;span dir=&quot;ltr&quot; role=&quot;presentation&quot; style=&quot;left: 459.142px; top: 746.757px; font-size: 12.2353px; font-family: sans-serif; transform: scaleX(1.15205);&quot;&gt;AjÃ­, Pimiento&lt;/span&gt;" style="shape=parallelogram;perimeter=parallelogramPerimeter;whiteSpace=wrap;html=1;fixedSize=1;shadow=0;glass=0;labelBackgroundColor=none;labelBorderColor=none;sketch=0;fontSize=13;fontColor=#000000;strokeColor=#000000;fillColor=#FFFF00;gradientColor=none;" parent="1" vertex="1">
          <mxGeometry x="190" y="805" width="94" height="20" as="geometry" />
        </mxCell>
        <mxCell id="66M02JN2FrkitM-om0R4-15" value="&lt;span dir=&quot;ltr&quot; role=&quot;presentation&quot; style=&quot;left: 459.142px; top: 144.169px; font-size: 12.2353px; font-family: sans-serif; transform: scaleX(1.07923);&quot;&gt;CanÃ³nigo&lt;/span&gt;" style="shape=parallelogram;perimeter=parallelogramPerimeter;whiteSpace=wrap;html=1;fixedSize=1;shadow=0;glass=0;labelBackgroundColor=none;labelBorderColor=none;sketch=0;fontSize=13;fontColor=#000000;strokeColor=#000000;fillColor=#FFFF00;gradientColor=none;" parent="1" vertex="1">
          <mxGeometry x="190" y="835" width="84" height="20" as="geometry" />
        </mxCell>
        <mxCell id="66M02JN2FrkitM-om0R4-17" value="&lt;span dir=&quot;ltr&quot; role=&quot;presentation&quot; style=&quot;left: 459.146px; top: 659.071px; font-size: 12.2353px; font-family: sans-serif; transform: scaleX(1.12619);&quot;&gt;Okra&lt;/span&gt;" style="shape=parallelogram;perimeter=parallelogramPerimeter;whiteSpace=wrap;html=1;fixedSize=1;shadow=0;glass=0;labelBackgroundColor=none;labelBorderColor=none;sketch=0;fontSize=13;fontColor=#000000;strokeColor=#000000;fillColor=#FFFF00;gradientColor=none;" parent="1" vertex="1">
          <mxGeometry x="190" y="865" width="79" height="20" as="geometry" />
        </mxCell>
        <mxCell id="66M02JN2FrkitM-om0R4-18" value="" style="edgeStyle=orthogonalEdgeStyle;rounded=0;orthogonalLoop=1;jettySize=auto;html=1;fontSize=13;fontColor=#000000;exitX=1;exitY=0.5;exitDx=0;exitDy=0;" parent="1" edge="1">
          <mxGeometry relative="1" as="geometry">
            <mxPoint x="170" y="845" as="sourcePoint" />
            <mxPoint x="200" y="845" as="targetPoint" />
          </mxGeometry>
        </mxCell>
        <mxCell id="66M02JN2FrkitM-om0R4-19" value="" style="edgeStyle=orthogonalEdgeStyle;rounded=0;orthogonalLoop=1;jettySize=auto;html=1;fontSize=13;fontColor=#000000;exitX=1;exitY=0.5;exitDx=0;exitDy=0;" parent="1" source="nCWuup4R4AbDnW3DWiKd-78" edge="1">
          <mxGeometry relative="1" as="geometry">
            <mxPoint x="190" y="805" as="sourcePoint" />
            <mxPoint x="200" y="875" as="targetPoint" />
          </mxGeometry>
        </mxCell>
        <mxCell id="66M02JN2FrkitM-om0R4-20" value="" style="edgeStyle=orthogonalEdgeStyle;rounded=0;orthogonalLoop=1;jettySize=auto;html=1;fontSize=13;fontColor=#000000;exitX=1;exitY=0.5;exitDx=0;exitDy=0;" parent="1" edge="1">
          <mxGeometry relative="1" as="geometry">
            <mxPoint x="200" y="815" as="sourcePoint" />
            <mxPoint x="200" y="815" as="targetPoint" />
            <Array as="points">
              <mxPoint x="170" y="815" />
              <mxPoint x="170" y="815" />
            </Array>
          </mxGeometry>
        </mxCell>
        <mxCell id="66M02JN2FrkitM-om0R4-21" style="edgeStyle=orthogonalEdgeStyle;curved=1;rounded=0;orthogonalLoop=1;jettySize=auto;html=1;exitX=0.5;exitY=1;exitDx=0;exitDy=0;fontSize=12;endArrow=open;" parent="1" source="nCWuup4R4AbDnW3DWiKd-6" target="nCWuup4R4AbDnW3DWiKd-6" edge="1">
          <mxGeometry relative="1" as="geometry" />
        </mxCell>
        <mxCell id="QRhNImlcriRFlgjVjBWK-24" style="edgeStyle=orthogonalEdgeStyle;rounded=0;orthogonalLoop=1;jettySize=auto;html=1;fontSize=10;entryX=0.568;entryY=-0.012;entryDx=0;entryDy=0;entryPerimeter=0;" edge="1" parent="1" source="66M02JN2FrkitM-om0R4-22" target="nCWuup4R4AbDnW3DWiKd-6">
          <mxGeometry relative="1" as="geometry">
            <mxPoint x="678" y="370" as="targetPoint" />
            <Array as="points">
              <mxPoint x="678" y="275" />
              <mxPoint x="640" y="275" />
              <mxPoint x="640" y="150" />
              <mxPoint x="1047" y="150" />
            </Array>
          </mxGeometry>
        </mxCell>
        <mxCell id="66M02JN2FrkitM-om0R4-22" value="rama de la agricultura, se&amp;nbsp; orienta hacia el cultivo intensivo de las plantas&amp;nbsp; utilizadas por el hombre con propÃ³sitos de &amp;nbsp;&lt;br&gt;alimentaciÃ³n, medicinales y ornamentales." style="rounded=1;whiteSpace=wrap;html=1;fillColor=#FF0000;strokeColor=#b85450;gradientColor=none;glass=0;shadow=0;sketch=0;" parent="1" vertex="1">
          <mxGeometry x="550" y="110" width="256" height="60" as="geometry" />
        </mxCell>
        <mxCell id="QRhNImlcriRFlgjVjBWK-25" value="" style="edgeStyle=orthogonalEdgeStyle;rounded=0;orthogonalLoop=1;jettySize=auto;html=1;fontSize=10;" edge="1" parent="1" source="66M02JN2FrkitM-om0R4-24" target="66M02JN2FrkitM-om0R4-22">
          <mxGeometry relative="1" as="geometry" />
        </mxCell>
        <mxCell id="66M02JN2FrkitM-om0R4-24" value="DefiniciÃ³n" style="shape=parallelogram;perimeter=parallelogramPerimeter;whiteSpace=wrap;html=1;fixedSize=1;fontSize=16;gradientColor=none;" parent="1" vertex="1">
          <mxGeometry x="617" y="61" width="120" height="20" as="geometry" />
        </mxCell>
        <mxCell id="QRhNImlcriRFlgjVjBWK-12" value="" style="edgeStyle=orthogonalEdgeStyle;rounded=0;orthogonalLoop=1;jettySize=auto;html=1;" edge="1" parent="1" source="66M02JN2FrkitM-om0R4-26" target="QRhNImlcriRFlgjVjBWK-11">
          <mxGeometry relative="1" as="geometry" />
        </mxCell>
        <mxCell id="QRhNImlcriRFlgjVjBWK-17" style="edgeStyle=orthogonalEdgeStyle;rounded=0;orthogonalLoop=1;jettySize=auto;html=1;fontSize=10;" edge="1" parent="1" source="66M02JN2FrkitM-om0R4-26" target="nCWuup4R4AbDnW3DWiKd-4">
          <mxGeometry relative="1" as="geometry">
            <Array as="points">
              <mxPoint x="420" y="220" />
              <mxPoint x="270" y="220" />
              <mxPoint x="270" y="390" />
            </Array>
          </mxGeometry>
        </mxCell>
        <mxCell id="QRhNImlcriRFlgjVjBWK-51" style="edgeStyle=orthogonalEdgeStyle;rounded=0;orthogonalLoop=1;jettySize=auto;html=1;fontSize=12;entryX=0.562;entryY=-0.056;entryDx=0;entryDy=0;entryPerimeter=0;" edge="1" parent="1" target="QRhNImlcriRFlgjVjBWK-27">
          <mxGeometry relative="1" as="geometry">
            <mxPoint x="420" y="218" as="sourcePoint" />
            <mxPoint x="488" y="798" as="targetPoint" />
            <Array as="points">
              <mxPoint x="420" y="221" />
              <mxPoint x="573" y="221" />
              <mxPoint x="573" y="759" />
              <mxPoint x="478" y="759" />
              <mxPoint x="478" y="798" />
            </Array>
          </mxGeometry>
        </mxCell>
        <mxCell id="QRhNImlcriRFlgjVjBWK-52" value="Text" style="edgeLabel;html=1;align=center;verticalAlign=middle;resizable=0;points=[];fontSize=12;" vertex="1" connectable="0" parent="QRhNImlcriRFlgjVjBWK-51">
          <mxGeometry x="0.2935" y="1" relative="1" as="geometry">
            <mxPoint as="offset" />
          </mxGeometry>
        </mxCell>
        <mxCell id="66M02JN2FrkitM-om0R4-26" value="ClasificaciÃ³n" style="shape=parallelogram;perimeter=parallelogramPerimeter;whiteSpace=wrap;html=1;fixedSize=1;fontSize=16;gradientColor=none;" parent="1" vertex="1">
          <mxGeometry x="360" y="100" width="130" height="38" as="geometry" />
        </mxCell>
        <mxCell id="66M02JN2FrkitM-om0R4-31" value="" style="edgeStyle=orthogonalEdgeStyle;curved=1;rounded=0;orthogonalLoop=1;jettySize=auto;html=1;fontSize=12;endArrow=open;" parent="1" source="66M02JN2FrkitM-om0R4-28" target="66M02JN2FrkitM-om0R4-30" edge="1">
          <mxGeometry relative="1" as="geometry" />
        </mxCell>
        <mxCell id="QRhNImlcriRFlgjVjBWK-58" value="" style="edgeStyle=orthogonalEdgeStyle;rounded=0;orthogonalLoop=1;jettySize=auto;html=1;fontSize=12;" edge="1" parent="1" source="66M02JN2FrkitM-om0R4-28" target="QRhNImlcriRFlgjVjBWK-57">
          <mxGeometry relative="1" as="geometry" />
        </mxCell>
        <mxCell id="66M02JN2FrkitM-om0R4-28" value="AlimentaciÃ³n, " style="whiteSpace=wrap;html=1;fillColor=#FF0000;shadow=0;glass=0;sketch=0;gradientColor=none;" parent="1" vertex="1">
          <mxGeometry x="990" y="178" width="90" height="20" as="geometry" />
        </mxCell>
        <mxCell id="QRhNImlcriRFlgjVjBWK-65" value="" style="edgeStyle=orthogonalEdgeStyle;rounded=0;orthogonalLoop=1;jettySize=auto;html=1;fontSize=12;" edge="1" parent="1" source="66M02JN2FrkitM-om0R4-30" target="QRhNImlcriRFlgjVjBWK-64">
          <mxGeometry relative="1" as="geometry" />
        </mxCell>
        <mxCell id="QRhNImlcriRFlgjVjBWK-69" value="" style="edgeStyle=orthogonalEdgeStyle;rounded=0;orthogonalLoop=1;jettySize=auto;html=1;fontSize=12;" edge="1" parent="1" source="66M02JN2FrkitM-om0R4-30" target="QRhNImlcriRFlgjVjBWK-60">
          <mxGeometry relative="1" as="geometry" />
        </mxCell>
        <mxCell id="66M02JN2FrkitM-om0R4-30" value="Medicinales " style="whiteSpace=wrap;html=1;fillColor=#FF0000;shadow=0;glass=0;sketch=0;gradientColor=none;" parent="1" vertex="1">
          <mxGeometry x="990" y="209" width="90" height="19" as="geometry" />
        </mxCell>
        <mxCell id="QRhNImlcriRFlgjVjBWK-56" style="edgeStyle=orthogonalEdgeStyle;rounded=0;orthogonalLoop=1;jettySize=auto;html=1;entryX=0.458;entryY=0.062;entryDx=0;entryDy=0;entryPerimeter=0;fontSize=12;" edge="1" parent="1" source="QRhNImlcriRFlgjVjBWK-7" target="QRhNImlcriRFlgjVjBWK-9">
          <mxGeometry relative="1" as="geometry" />
        </mxCell>
        <mxCell id="QRhNImlcriRFlgjVjBWK-7" value="&amp;nbsp;ciencia que agrupa ordenadamente a los&amp;nbsp; organismos vivos de acuerdo a lo que se presume son sus relaciones naturales," style="rounded=0;whiteSpace=wrap;html=1;" vertex="1" parent="1">
          <mxGeometry x="20" y="90" width="220" height="60" as="geometry" />
        </mxCell>
        <mxCell id="QRhNImlcriRFlgjVjBWK-19" style="edgeStyle=orthogonalEdgeStyle;rounded=0;orthogonalLoop=1;jettySize=auto;html=1;fontSize=10;" edge="1" parent="1" source="QRhNImlcriRFlgjVjBWK-9" target="nCWuup4R4AbDnW3DWiKd-4">
          <mxGeometry relative="1" as="geometry">
            <Array as="points">
              <mxPoint x="120" y="360" />
              <mxPoint x="120" y="360" />
            </Array>
          </mxGeometry>
        </mxCell>
        <mxCell id="QRhNImlcriRFlgjVjBWK-9" value="&lt;font data-darkreader-inline-color=&quot;&quot; style=&quot;--darkreader-inline-color: #e6e4e1;&quot; color=&quot;#030303&quot;&gt;â¢ REINO Plantae &amp;nbsp;&lt;br&gt;â¢ DIVISION: Spermatophyta &amp;nbsp;&lt;br&gt;â¢ SUBDIVISION: Angiospermae &amp;nbsp;&lt;br&gt;â¢ CLASE: Dicotyledoneae &amp;nbsp;&lt;br&gt;â¢ SUBCLASE: Metachlamideae &amp;nbsp;&lt;br&gt;â¢ ORDEN: Cucurbitales &amp;nbsp;&lt;br&gt;â¢ FAMILIA: Cucurbitaceae &amp;nbsp;&lt;br&gt;â¢ GENERO: Cucumis &amp;nbsp;&lt;br&gt;â¢ ESPECIE: Cucumis melo &amp;nbsp;&lt;br&gt;â¢ VARIEDAD BOTANICA: Cucumis melo var. Inodorus&lt;/font&gt;" style="whiteSpace=wrap;html=1;rounded=0;align=left;fontSize=10;fillColor=#FFFF00;fontColor=#000000;" vertex="1" parent="1">
          <mxGeometry x="27" y="192" width="225" height="130" as="geometry" />
        </mxCell>
        <mxCell id="QRhNImlcriRFlgjVjBWK-13" value="" style="edgeStyle=orthogonalEdgeStyle;rounded=0;orthogonalLoop=1;jettySize=auto;html=1;" edge="1" parent="1" source="QRhNImlcriRFlgjVjBWK-11" target="QRhNImlcriRFlgjVjBWK-7">
          <mxGeometry relative="1" as="geometry" />
        </mxCell>
        <mxCell id="QRhNImlcriRFlgjVjBWK-11" value="TaxonomÃ­a" style="whiteSpace=wrap;html=1;fontSize=16;gradientColor=none;fillColor=#FF0000;" vertex="1" parent="1">
          <mxGeometry x="260" y="100" width="90" height="40" as="geometry" />
        </mxCell>
        <mxCell id="QRhNImlcriRFlgjVjBWK-29" value="" style="edgeStyle=orthogonalEdgeStyle;rounded=0;orthogonalLoop=1;jettySize=auto;html=1;fontSize=10;startArrow=none;" edge="1" parent="1" source="QRhNImlcriRFlgjVjBWK-47">
          <mxGeometry relative="1" as="geometry">
            <mxPoint x="168" y="960" as="targetPoint" />
          </mxGeometry>
        </mxCell>
        <mxCell id="QRhNImlcriRFlgjVjBWK-31" value="" style="edgeStyle=orthogonalEdgeStyle;rounded=0;orthogonalLoop=1;jettySize=auto;html=1;fontSize=10;" edge="1" parent="1" source="QRhNImlcriRFlgjVjBWK-27" target="QRhNImlcriRFlgjVjBWK-30">
          <mxGeometry relative="1" as="geometry">
            <Array as="points">
              <mxPoint x="471" y="897" />
              <mxPoint x="661" y="897" />
            </Array>
          </mxGeometry>
        </mxCell>
        <mxCell id="QRhNImlcriRFlgjVjBWK-32" style="edgeStyle=orthogonalEdgeStyle;rounded=0;orthogonalLoop=1;jettySize=auto;html=1;fontSize=10;startArrow=none;" edge="1" parent="1" source="QRhNImlcriRFlgjVjBWK-42" target="QRhNImlcriRFlgjVjBWK-33">
          <mxGeometry relative="1" as="geometry">
            <mxPoint x="368" y="1002" as="targetPoint" />
          </mxGeometry>
        </mxCell>
        <mxCell id="QRhNImlcriRFlgjVjBWK-77" value="" style="edgeStyle=orthogonalEdgeStyle;rounded=0;orthogonalLoop=1;jettySize=auto;html=1;fontSize=12;fontColor=#030303;" edge="1" parent="1" source="QRhNImlcriRFlgjVjBWK-27" target="QRhNImlcriRFlgjVjBWK-76">
          <mxGeometry relative="1" as="geometry" />
        </mxCell>
        <mxCell id="QRhNImlcriRFlgjVjBWK-27" value="clima" style="rounded=0;whiteSpace=wrap;html=1;fontSize=10;" vertex="1" parent="1">
          <mxGeometry x="411" y="816" width="120" height="29" as="geometry" />
        </mxCell>
        <mxCell id="QRhNImlcriRFlgjVjBWK-55" style="edgeStyle=orthogonalEdgeStyle;rounded=0;orthogonalLoop=1;jettySize=auto;html=1;entryX=0.5;entryY=0;entryDx=0;entryDy=0;fontSize=12;" edge="1" parent="1" source="QRhNImlcriRFlgjVjBWK-28" target="QRhNImlcriRFlgjVjBWK-48">
          <mxGeometry relative="1" as="geometry" />
        </mxCell>
        <mxCell id="QRhNImlcriRFlgjVjBWK-28" value="&lt;div align=&quot;justify&quot;&gt;&lt;font style=&quot;font-size: 12px;&quot;&gt;&lt;span id=&quot;page172R_mcid4&quot; class=&quot;markedContent&quot;&gt;&lt;span dir=&quot;ltr&quot; role=&quot;presentation&quot; style=&quot;left: 93.2813px; top: 148.389px; font-family: sans-serif; transform: scaleX(1.25542);&quot;&gt;&lt;br&gt;&lt;/span&gt;&lt;/span&gt;&lt;/font&gt;&lt;/div&gt;&lt;div align=&quot;justify&quot;&gt;&lt;font style=&quot;font-size: 12px;&quot;&gt;&lt;span id=&quot;page172R_mcid4&quot; class=&quot;markedContent&quot;&gt;&lt;span dir=&quot;ltr&quot; role=&quot;presentation&quot; style=&quot;left: 93.2813px; top: 148.389px; font-family: sans-serif; transform: scaleX(1.25542);&quot;&gt;poseen&lt;/span&gt;&lt;/span&gt;&lt;/font&gt;&lt;font style=&quot;font-size: 12px;&quot;&gt;&lt;span id=&quot;page172R_mcid4&quot; class=&quot;markedContent&quot;&gt;&lt;span dir=&quot;ltr&quot; role=&quot;presentation&quot; style=&quot;left: 125.536px; top: 170.892px; font-family: sans-serif; transform: scaleX(1.2881);&quot;&gt; temperaturas Ã³ptimas de crecimiento entre 15 y&lt;/span&gt;&lt;span dir=&quot;ltr&quot; role=&quot;presentation&quot; style=&quot;left: 645.565px; top: 170.892px; font-family: sans-serif;&quot;&gt; &lt;/span&gt;&lt;span dir=&quot;ltr&quot; role=&quot;presentation&quot; style=&quot;left: 652.513px; top: 170.892px; font-family: sans-serif; transform: scaleX(1.14658);&quot;&gt;18&lt;/span&gt;&lt;span dir=&quot;ltr&quot; role=&quot;presentation&quot; style=&quot;left: 676.88px; top: 170.892px; font-family: sans-serif;&quot;&gt;Â°&lt;/span&gt;&lt;span dir=&quot;ltr&quot; role=&quot;presentation&quot; style=&quot;left: 684.476px; top: 170.892px; font-family: sans-serif; transform: scaleX(1.08395);&quot;&gt;C. No&lt;/span&gt;&lt;/span&gt;&lt;/font&gt;&lt;font style=&quot;font-size: 12px;&quot;&gt;&lt;span id=&quot;page172R_mcid4&quot; class=&quot;markedContent&quot;&gt;&lt;span dir=&quot;ltr&quot; role=&quot;presentation&quot; style=&quot;left: 125.536px; top: 193.825px; font-family: sans-serif; transform: scaleX(1.28348);&quot;&gt; toleran temperaturas promedio mayores a 24&lt;/span&gt;&lt;span dir=&quot;ltr&quot; role=&quot;presentation&quot; style=&quot;left: 615.784px; top: 193.825px; font-family: sans-serif;&quot;&gt;Â°&lt;/span&gt;&lt;span dir=&quot;ltr&quot; role=&quot;presentation&quot; style=&quot;left: 623.381px; top: 193.825px; font-family: sans-serif; transform: scaleX(1.21134);&quot;&gt;C y sÃ³lo &lt;/span&gt;&lt;/span&gt;&lt;/font&gt;&lt;font style=&quot;font-size: 12px;&quot;&gt;&lt;span id=&quot;page172R_mcid4&quot; class=&quot;markedContent&quot;&gt;&lt;span dir=&quot;ltr&quot; role=&quot;presentation&quot; style=&quot;left: 125.536px; top: 217.189px; font-family: sans-serif; transform: scaleX(1.26527);&quot;&gt;toleran heladas suaves.&lt;/span&gt;&lt;span dir=&quot;ltr&quot; role=&quot;presentation&quot; style=&quot;left: 380.299px; top: 217.189px; font-family: sans-serif;&quot;&gt; &lt;/span&gt;&lt;/span&gt;&lt;/font&gt;&lt;br role=&quot;presentation&quot;&gt;&lt;/div&gt;&lt;div align=&quot;justify&quot;&gt;&lt;span id=&quot;page172R_mcid5&quot; class=&quot;markedContent&quot;&gt;&lt;/span&gt;&lt;br&gt;&lt;/div&gt;" style="whiteSpace=wrap;html=1;fontSize=10;rounded=0;fillColor=#FF0000;" vertex="1" parent="1">
          <mxGeometry x="40" y="960" width="254" height="60" as="geometry" />
        </mxCell>
        <mxCell id="QRhNImlcriRFlgjVjBWK-38" value="" style="edgeStyle=orthogonalEdgeStyle;rounded=0;orthogonalLoop=1;jettySize=auto;html=1;fontSize=12;" edge="1" parent="1" source="QRhNImlcriRFlgjVjBWK-30" target="QRhNImlcriRFlgjVjBWK-35">
          <mxGeometry relative="1" as="geometry" />
        </mxCell>
        <mxCell id="QRhNImlcriRFlgjVjBWK-30" value="&lt;font style=&quot;font-size: 12px;&quot;&gt;&lt;span id=&quot;page172R_mcid6&quot; class=&quot;markedContent&quot;&gt;&lt;span dir=&quot;ltr&quot; role=&quot;presentation&quot; style=&quot;left: 93.2813px; top: 492.448px; font-family: sans-serif; transform: scaleX(1.25553);&quot;&gt;Grupo C: &lt;/span&gt;&lt;/span&gt;&lt;/font&gt;" style="rounded=0;whiteSpace=wrap;html=1;fontSize=10;" vertex="1" parent="1">
          <mxGeometry x="621" y="921" width="71" height="20" as="geometry" />
        </mxCell>
        <mxCell id="QRhNImlcriRFlgjVjBWK-46" value="" style="edgeStyle=orthogonalEdgeStyle;rounded=0;orthogonalLoop=1;jettySize=auto;html=1;fontSize=12;" edge="1" parent="1" source="QRhNImlcriRFlgjVjBWK-33" target="QRhNImlcriRFlgjVjBWK-40">
          <mxGeometry relative="1" as="geometry" />
        </mxCell>
        <mxCell id="QRhNImlcriRFlgjVjBWK-33" value="&lt;div align=&quot;justify&quot;&gt;&lt;font style=&quot;font-size: 12px;&quot;&gt;&lt;span id=&quot;page172R_mcid5&quot; class=&quot;markedContent&quot;&gt;&lt;span dir=&quot;ltr&quot; role=&quot;presentation&quot; style=&quot;left: 93.2813px; top: 308.958px; font-family: sans-serif; transform: scaleX(1.26108);&quot;&gt;se diferencian de &lt;/span&gt;&lt;/span&gt;&lt;/font&gt;&lt;font style=&quot;font-size: 12px;&quot;&gt;&lt;span id=&quot;page172R_mcid5&quot; class=&quot;markedContent&quot;&gt;&lt;span dir=&quot;ltr&quot; role=&quot;presentation&quot; style=&quot;left: 125.536px; top: 331.891px; font-family: sans-serif; transform: scaleX(1.26776);&quot;&gt;las del grupo anterior en que son susceptibles a heladas &lt;/span&gt;&lt;/span&gt;&lt;/font&gt;&lt;font style=&quot;font-size: 12px;&quot;&gt;&lt;span id=&quot;page172R_mcid5&quot; class=&quot;markedContent&quot;&gt;&lt;span dir=&quot;ltr&quot; role=&quot;presentation&quot; style=&quot;left: 125.536px; top: 354.825px; font-family: sans-serif; transform: scaleX(1.26036);&quot;&gt;cerca de su madurez. &lt;/span&gt;&lt;/span&gt;&lt;/font&gt;&lt;br&gt;&lt;/div&gt;" style="rounded=0;whiteSpace=wrap;html=1;fontSize=10;fillColor=#FF0000;" vertex="1" parent="1">
          <mxGeometry x="326" y="982" width="187" height="48" as="geometry" />
        </mxCell>
        <mxCell id="QRhNImlcriRFlgjVjBWK-37" value="" style="edgeStyle=orthogonalEdgeStyle;rounded=0;orthogonalLoop=1;jettySize=auto;html=1;fontSize=12;" edge="1" parent="1" source="QRhNImlcriRFlgjVjBWK-35" target="QRhNImlcriRFlgjVjBWK-36">
          <mxGeometry relative="1" as="geometry" />
        </mxCell>
        <mxCell id="QRhNImlcriRFlgjVjBWK-35" value="&lt;div align=&quot;justify&quot;&gt;&lt;font style=&quot;font-size: 12px;&quot;&gt;&lt;span id=&quot;page172R_mcid6&quot; class=&quot;markedContent&quot;&gt;&lt;span dir=&quot;ltr&quot; role=&quot;presentation&quot; style=&quot;left: 93.2813px; top: 492.448px; font-family: sans-serif; transform: scaleX(1.25553);&quot;&gt;EstÃ¡n&lt;/span&gt;&lt;/span&gt;&lt;span id=&quot;page172R_mcid6&quot; class=&quot;markedContent&quot;&gt;&lt;span dir=&quot;ltr&quot; role=&quot;presentation&quot; style=&quot;left: 125.536px; top: 514.954px; font-family: sans-serif; transform: scaleX(1.27775);&quot;&gt; adaptadas a temperaturas entre 13 y 24&lt;/span&gt;&lt;span dir=&quot;ltr&quot; role=&quot;presentation&quot; style=&quot;left: 559.454px; top: 514.954px; font-family: sans-serif;&quot;&gt;Â°&lt;/span&gt;&lt;span dir=&quot;ltr&quot; role=&quot;presentation&quot; style=&quot;left: 567.051px; top: 514.954px; font-family: sans-serif; transform: scaleX(1.21304);&quot;&gt;C y no son &lt;/span&gt;&lt;/span&gt;&lt;/font&gt;&lt;font style=&quot;font-size: 12px;&quot;&gt;&lt;span id=&quot;page172R_mcid6&quot; class=&quot;markedContent&quot;&gt;&lt;span dir=&quot;ltr&quot; role=&quot;presentation&quot; style=&quot;left: 125.536px; top: 538.324px; font-size: 12px; font-family: sans-serif; transform: scaleX(1.26884);&quot;&gt;tolerantes a heladas. &lt;/span&gt;&lt;/span&gt;&lt;/font&gt;&lt;font style=&quot;font-size: 12px;&quot;&gt;&lt;span id=&quot;page172R_mcid6&quot; class=&quot;markedContent&quot;&gt;&lt;span dir=&quot;ltr&quot; role=&quot;presentation&quot; style=&quot;left: 125.536px; top: 583.783px; font-family: sans-serif; transform: scaleX(1.29265);&quot;&gt;&lt;/span&gt;&lt;/span&gt;&lt;/font&gt;&lt;br&gt;&lt;/div&gt;" style="rounded=0;whiteSpace=wrap;html=1;fontSize=10;fillColor=#FF0000;" vertex="1" parent="1">
          <mxGeometry x="540" y="980" width="231" height="47" as="geometry" />
        </mxCell>
        <mxCell id="QRhNImlcriRFlgjVjBWK-36" value="&lt;font style=&quot;font-size: 12px;&quot;&gt;&lt;span id=&quot;page172R_mcid6&quot; class=&quot;markedContent&quot;&gt;&lt;span dir=&quot;ltr&quot; role=&quot;presentation&quot; style=&quot;left: 125.536px; top: 561.28px; font-family: sans-serif; transform: scaleX(1.27694);&quot;&gt;ajo, cebolla, cebollÃ­n, cebollino japonÃ©s, &lt;/span&gt;&lt;/span&gt;&lt;/font&gt;&lt;font style=&quot;font-size: 12px;&quot;&gt;&lt;span id=&quot;page172R_mcid6&quot; class=&quot;markedContent&quot;&gt;&lt;span dir=&quot;ltr&quot; role=&quot;presentation&quot; style=&quot;left: 125.536px; top: 583.783px; font-family: sans-serif; transform: scaleX(1.29265);&quot;&gt;chalota y ajo.&lt;/span&gt;&lt;/span&gt;&lt;/font&gt;" style="shape=parallelogram;perimeter=parallelogramPerimeter;whiteSpace=wrap;html=1;fixedSize=1;fontSize=10;rounded=0;fillColor=#3333FF;" vertex="1" parent="1">
          <mxGeometry x="552" y="1060" width="209" height="40" as="geometry" />
        </mxCell>
        <mxCell id="QRhNImlcriRFlgjVjBWK-40" value="&lt;font style=&quot;font-size: 12px;&quot;&gt;&lt;span id=&quot;page172R_mcid5&quot; class=&quot;markedContent&quot;&gt;&lt;span dir=&quot;ltr&quot; role=&quot;presentation&quot; style=&quot;left: 125.536px; top: 377.76px; font-family: sans-serif; transform: scaleX(1.2649);&quot;&gt;acelga, achicoria, alcachofa, apio, apio&lt;/span&gt;&lt;br role=&quot;presentation&quot;&gt;&lt;span dir=&quot;ltr&quot; role=&quot;presentation&quot; style=&quot;left: 125.536px; top: 400.715px; font-family: sans-serif; transform: scaleX(1.27978);&quot;&gt;rÃ¡iz papa, arveja,&lt;/span&gt;&lt;span dir=&quot;ltr&quot; role=&quot;presentation&quot; style=&quot;left: 312.683px; top: 400.715px; font-family: sans-serif;&quot;&gt; &lt;/span&gt;&lt;span dir=&quot;ltr&quot; role=&quot;presentation&quot; style=&quot;left: 326.275px; top: 400.715px; font-family: sans-serif; transform: scaleX(1.29499);&quot;&gt;coliflor, endivia.&lt;/span&gt;&lt;/span&gt;&lt;br&gt;&lt;/font&gt;" style="shape=parallelogram;perimeter=parallelogramPerimeter;whiteSpace=wrap;html=1;fixedSize=1;fontSize=10;rounded=0;fillColor=#3333FF;" vertex="1" parent="1">
          <mxGeometry x="300" y="1078" width="242" height="42" as="geometry" />
        </mxCell>
        <mxCell id="QRhNImlcriRFlgjVjBWK-44" value="" style="edgeStyle=orthogonalEdgeStyle;rounded=0;orthogonalLoop=1;jettySize=auto;html=1;fontSize=12;" edge="1" parent="1" source="QRhNImlcriRFlgjVjBWK-42" target="QRhNImlcriRFlgjVjBWK-33">
          <mxGeometry relative="1" as="geometry" />
        </mxCell>
        <mxCell id="QRhNImlcriRFlgjVjBWK-42" value="&lt;font style=&quot;font-size: 12px;&quot;&gt;&lt;span id=&quot;page172R_mcid5&quot; class=&quot;markedContent&quot;&gt;&lt;span dir=&quot;ltr&quot; role=&quot;presentation&quot; style=&quot;left: 93.2813px; top: 308.958px; font-family: sans-serif; transform: scaleX(1.26108);&quot;&gt;Grupo B&lt;/span&gt;&lt;/span&gt;&lt;/font&gt;" style="rounded=0;whiteSpace=wrap;html=1;fontSize=12;" vertex="1" parent="1">
          <mxGeometry x="392" y="923" width="70" height="20" as="geometry" />
        </mxCell>
        <mxCell id="QRhNImlcriRFlgjVjBWK-43" value="" style="edgeStyle=orthogonalEdgeStyle;rounded=0;orthogonalLoop=1;jettySize=auto;html=1;fontSize=10;endArrow=none;" edge="1" parent="1" source="QRhNImlcriRFlgjVjBWK-27" target="QRhNImlcriRFlgjVjBWK-42">
          <mxGeometry relative="1" as="geometry">
            <mxPoint x="247.52380952380963" y="970" as="targetPoint" />
            <mxPoint x="447" y="910.5238095238094" as="sourcePoint" />
            <Array as="points">
              <mxPoint x="471" y="900" />
              <mxPoint x="427" y="900" />
            </Array>
          </mxGeometry>
        </mxCell>
        <mxCell id="QRhNImlcriRFlgjVjBWK-48" value="&lt;font style=&quot;font-size: 12px;&quot;&gt;&lt;span id=&quot;page172R_mcid4&quot; class=&quot;markedContent&quot;&gt;&lt;span dir=&quot;ltr&quot; role=&quot;presentation&quot; style=&quot;left: 393.814px; top: 217.189px; font-family: sans-serif; transform: scaleX(1.27327);&quot;&gt;berro de agua, brÃ³coli, remolacha,&lt;/span&gt;&lt;/span&gt;&lt;/font&gt;&lt;br role=&quot;presentation&quot;&gt;&lt;font style=&quot;font-size: 12px;&quot;&gt;&lt;span id=&quot;page172R_mcid4&quot; class=&quot;markedContent&quot;&gt;&lt;span dir=&quot;ltr&quot; role=&quot;presentation&quot; style=&quot;left: 125.536px; top: 240.136px; font-family: sans-serif; transform: scaleX(1.26893);&quot;&gt;repollo, colirrÃ¡bano, espinaca, haba, nabo.&lt;/span&gt;&lt;/span&gt;&lt;/font&gt;&lt;span id=&quot;page172R_mcid5&quot; class=&quot;markedContent&quot;&gt;&lt;/span&gt;" style="shape=parallelogram;perimeter=parallelogramPerimeter;whiteSpace=wrap;html=1;fixedSize=1;fontSize=12;fillColor=#3333FF;" vertex="1" parent="1">
          <mxGeometry x="40" y="1040" width="258" height="60" as="geometry" />
        </mxCell>
        <mxCell id="QRhNImlcriRFlgjVjBWK-47" value="&#xa;&lt;font style=&quot;font-size: 12px;&quot;&gt;&lt;br&gt;&lt;/font&gt;&lt;div align=&quot;justify&quot;&gt;&lt;font style=&quot;font-size: 12px;&quot;&gt;&lt;span id=&quot;page172R_mcid4&quot; class=&quot;markedContent&quot;&gt;&lt;span dir=&quot;ltr&quot; role=&quot;presentation&quot; style=&quot;left: 93.2813px; top: 148.389px; font-family: sans-serif; transform: scaleX(1.25542);&quot;&gt;Grupo A:&lt;/span&gt;&lt;/span&gt;&lt;/font&gt;&lt;/div&gt;&#xa;&#xa;" style="rounded=0;whiteSpace=wrap;html=1;fontSize=12;" vertex="1" parent="1">
          <mxGeometry x="130" y="910" width="76" height="22" as="geometry" />
        </mxCell>
        <mxCell id="QRhNImlcriRFlgjVjBWK-49" value="" style="edgeStyle=orthogonalEdgeStyle;rounded=0;orthogonalLoop=1;jettySize=auto;html=1;fontSize=10;endArrow=none;" edge="1" parent="1" source="QRhNImlcriRFlgjVjBWK-27" target="QRhNImlcriRFlgjVjBWK-47">
          <mxGeometry relative="1" as="geometry">
            <mxPoint x="447" y="910.4705882352941" as="sourcePoint" />
            <mxPoint x="-162" y="957" as="targetPoint" />
            <Array as="points">
              <mxPoint x="471" y="899" />
            </Array>
          </mxGeometry>
        </mxCell>
        <mxCell id="QRhNImlcriRFlgjVjBWK-57" value="BrÃ³coli, Tomate" style="shape=parallelogram;perimeter=parallelogramPerimeter;whiteSpace=wrap;html=1;fixedSize=1;fillColor=#F065D4;shadow=0;glass=0;sketch=0;gradientColor=none;" vertex="1" parent="1">
          <mxGeometry x="1090" y="178" width="120" height="20" as="geometry" />
        </mxCell>
        <mxCell id="QRhNImlcriRFlgjVjBWK-60" value="Zanahoria&lt;br&gt;" style="shape=parallelogram;perimeter=parallelogramPerimeter;whiteSpace=wrap;html=1;fixedSize=1;fillColor=#F065D4;shadow=0;glass=0;sketch=0;gradientColor=none;" vertex="1" parent="1">
          <mxGeometry x="1090" y="208" width="120" height="20" as="geometry" />
        </mxCell>
        <mxCell id="QRhNImlcriRFlgjVjBWK-72" value="" style="edgeStyle=orthogonalEdgeStyle;rounded=0;orthogonalLoop=1;jettySize=auto;html=1;fontSize=12;" edge="1" parent="1" source="QRhNImlcriRFlgjVjBWK-64" target="QRhNImlcriRFlgjVjBWK-71">
          <mxGeometry relative="1" as="geometry" />
        </mxCell>
        <mxCell id="QRhNImlcriRFlgjVjBWK-64" value="Ornamentales" style="whiteSpace=wrap;html=1;fillColor=#FF0000;shadow=0;glass=0;sketch=0;gradientColor=none;" vertex="1" parent="1">
          <mxGeometry x="990" y="238" width="90" height="19" as="geometry" />
        </mxCell>
        <mxCell id="QRhNImlcriRFlgjVjBWK-71" value="&lt;br&gt;&lt;span class=&quot;ILfuVd&quot; lang=&quot;es&quot;&gt;&lt;span class=&quot;hgKElc&quot;&gt;Coles rizadas de colores&lt;/span&gt;&lt;/span&gt;&lt;br&gt;" style="shape=parallelogram;perimeter=parallelogramPerimeter;whiteSpace=wrap;html=1;fixedSize=1;fillColor=#F065D4;shadow=0;glass=0;sketch=0;gradientColor=none;" vertex="1" parent="1">
          <mxGeometry x="1090" y="238" width="120" height="20" as="geometry" />
        </mxCell>
        <mxCell id="QRhNImlcriRFlgjVjBWK-79" value="" style="edgeStyle=orthogonalEdgeStyle;rounded=0;orthogonalLoop=1;jettySize=auto;html=1;fontSize=12;fontColor=#030303;" edge="1" parent="1" source="QRhNImlcriRFlgjVjBWK-76" target="QRhNImlcriRFlgjVjBWK-78">
          <mxGeometry relative="1" as="geometry" />
        </mxCell>
        <mxCell id="QRhNImlcriRFlgjVjBWK-81" value="" style="edgeStyle=orthogonalEdgeStyle;rounded=0;orthogonalLoop=1;jettySize=auto;html=1;fontSize=12;fontColor=#030303;" edge="1" parent="1" source="QRhNImlcriRFlgjVjBWK-76" target="QRhNImlcriRFlgjVjBWK-80">
          <mxGeometry relative="1" as="geometry" />
        </mxCell>
        <mxCell id="QRhNImlcriRFlgjVjBWK-76" value="&lt;font style=&quot;font-size: 12px;&quot;&gt;&lt;br&gt;&lt;span id=&quot;page189R_mcid1&quot; class=&quot;markedContent&quot;&gt;&lt;span dir=&quot;ltr&quot; role=&quot;presentation&quot; style=&quot;left: 186.501px; top: 160.315px; font-family: sans-serif; transform: scaleX(1.19311);&quot;&gt;ESTACION CALIDA&lt;/span&gt;&lt;/span&gt;&lt;br&gt;&lt;br&gt;&lt;/font&gt;" style="whiteSpace=wrap;html=1;fontSize=10;rounded=0;" vertex="1" parent="1">
          <mxGeometry x="561" y="812" width="84" height="37" as="geometry" />
        </mxCell>
        <mxCell id="QRhNImlcriRFlgjVjBWK-85" value="" style="edgeStyle=orthogonalEdgeStyle;rounded=0;orthogonalLoop=1;jettySize=auto;html=1;fontSize=12;fontColor=#030303;" edge="1" parent="1" source="QRhNImlcriRFlgjVjBWK-78" target="QRhNImlcriRFlgjVjBWK-84">
          <mxGeometry relative="1" as="geometry" />
        </mxCell>
        <mxCell id="QRhNImlcriRFlgjVjBWK-78" value="&lt;font style=&quot;font-size: 12px;&quot;&gt;&lt;span style=&quot;font-size: 12px;&quot; id=&quot;page189R_mcid2&quot; class=&quot;markedContent&quot;&gt;&lt;span dir=&quot;ltr&quot; role=&quot;presentation&quot; style=&quot;left: 83.85px; top: 188.982px; font-family: sans-serif; transform: scaleX(1.25142);&quot;&gt;Grupo D&lt;/span&gt;&lt;/span&gt;&lt;br&gt;&lt;/font&gt;" style="whiteSpace=wrap;html=1;fontSize=10;rounded=0;" vertex="1" parent="1">
          <mxGeometry x="613" y="777" width="86" height="25" as="geometry" />
        </mxCell>
        <mxCell id="QRhNImlcriRFlgjVjBWK-83" value="" style="edgeStyle=orthogonalEdgeStyle;rounded=0;orthogonalLoop=1;jettySize=auto;html=1;fontSize=12;fontColor=#030303;" edge="1" parent="1" source="QRhNImlcriRFlgjVjBWK-80" target="QRhNImlcriRFlgjVjBWK-82">
          <mxGeometry relative="1" as="geometry" />
        </mxCell>
        <mxCell id="QRhNImlcriRFlgjVjBWK-80" value="&lt;font style=&quot;font-size: 12px;&quot;&gt;&lt;span id=&quot;page189R_mcid3&quot; class=&quot;markedContent&quot;&gt;&lt;span dir=&quot;ltr&quot; role=&quot;presentation&quot; style=&quot;left: 83.85px; top: 389.708px; font-family: sans-serif; transform: scaleX(1.25804);&quot;&gt;Grupo E: &lt;/span&gt;&lt;span dir=&quot;ltr&quot; role=&quot;presentation&quot; style=&quot;left: 83.85px; top: 475.278px; font-family: sans-serif; transform: scaleX(1.34246);&quot;&gt;&lt;/span&gt;&lt;/span&gt;&lt;/font&gt;" style="whiteSpace=wrap;html=1;fontSize=10;rounded=0;" vertex="1" parent="1">
          <mxGeometry x="617" y="862" width="91" height="27" as="geometry" />
        </mxCell>
        <mxCell id="QRhNImlcriRFlgjVjBWK-89" value="" style="edgeStyle=orthogonalEdgeStyle;rounded=0;orthogonalLoop=1;jettySize=auto;html=1;fontSize=12;fontColor=#030303;" edge="1" parent="1" source="QRhNImlcriRFlgjVjBWK-82" target="QRhNImlcriRFlgjVjBWK-88">
          <mxGeometry relative="1" as="geometry" />
        </mxCell>
        <mxCell id="QRhNImlcriRFlgjVjBWK-82" value="&lt;br&gt;&lt;font style=&quot;font-size: 12px;&quot;&gt;&lt;span id=&quot;page189R_mcid3&quot; class=&quot;markedContent&quot;&gt;&lt;span dir=&quot;ltr&quot; role=&quot;presentation&quot; style=&quot;left: 83.85px; top: 389.708px; font-family: sans-serif; transform: scaleX(1.25804);&quot;&gt;Este grupo sÃ³lo se diferencia del anterior en&lt;/span&gt;&lt;br role=&quot;presentation&quot;&gt;&lt;span dir=&quot;ltr&quot; role=&quot;presentation&quot; style=&quot;left: 83.85px; top: 418.375px; font-family: sans-serif; transform: scaleX(1.26669);&quot;&gt;que sus temperaturas Ã³ptimas son mayores, por&lt;/span&gt;&lt;br role=&quot;presentation&quot;&gt;&lt;span dir=&quot;ltr&quot; role=&quot;presentation&quot; style=&quot;left: 83.85px; top: 446.611px; font-family: sans-serif; transform: scaleX(1.25982);&quot;&gt;sobre los 21&lt;/span&gt;&lt;span dir=&quot;ltr&quot; role=&quot;presentation&quot; style=&quot;left: 248.134px; top: 446.611px; font-family: sans-serif;&quot;&gt;Â°&lt;/span&gt;&lt;span dir=&quot;ltr&quot; role=&quot;presentation&quot; style=&quot;left: 257.737px; top: 446.611px; font-family: sans-serif; transform: scaleX(1.25688);&quot;&gt;C&lt;/span&gt;&lt;span dir=&quot;ltr&quot; role=&quot;presentation&quot; style=&quot;left: 83.85px; top: 475.278px; font-family: sans-serif; transform: scaleX(1.34246);&quot;&gt;&lt;/span&gt;&lt;/span&gt;&lt;/font&gt;&lt;br&gt;" style="whiteSpace=wrap;html=1;fontSize=10;rounded=0;" vertex="1" parent="1">
          <mxGeometry x="827" y="801" width="297" height="60" as="geometry" />
        </mxCell>
        <mxCell id="QRhNImlcriRFlgjVjBWK-87" value="" style="edgeStyle=orthogonalEdgeStyle;rounded=0;orthogonalLoop=1;jettySize=auto;html=1;fontSize=12;fontColor=#030303;" edge="1" parent="1" source="QRhNImlcriRFlgjVjBWK-84" target="QRhNImlcriRFlgjVjBWK-86">
          <mxGeometry relative="1" as="geometry" />
        </mxCell>
        <mxCell id="QRhNImlcriRFlgjVjBWK-84" value="&lt;font style=&quot;font-size: 12px;&quot;&gt;&lt;span style=&quot;font-size: 12px;&quot; id=&quot;page189R_mcid2&quot; class=&quot;markedContent&quot;&gt;&lt;span dir=&quot;ltr&quot; role=&quot;presentation&quot; style=&quot;left: 83.85px; top: 188.982px; font-family: sans-serif; transform: scaleX(1.25142);&quot;&gt;&amp;nbsp;se adapta a temperaturas que&lt;/span&gt;&lt;br role=&quot;presentation&quot;&gt;&lt;span dir=&quot;ltr&quot; role=&quot;presentation&quot; style=&quot;left: 83.85px; top: 217.232px; font-family: sans-serif; transform: scaleX(1.27426);&quot;&gt;van entre los 18 y 27&lt;/span&gt;&lt;span dir=&quot;ltr&quot; role=&quot;presentation&quot; style=&quot;left: 367.423px; top: 217.232px; font-family: sans-serif;&quot;&gt;Â°&lt;/span&gt;&lt;span dir=&quot;ltr&quot; role=&quot;presentation&quot; style=&quot;left: 377.026px; top: 217.232px; font-family: sans-serif; transform: scaleX(1.24652);&quot;&gt;C y no toleran heladas en&lt;/span&gt;&lt;br role=&quot;presentation&quot;&gt;&lt;span dir=&quot;ltr&quot; role=&quot;presentation&quot; style=&quot;left: 83.85px; top: 246.351px; font-family: sans-serif; transform: scaleX(1.2731);&quot;&gt;ningÃºn momento de su desarrollo&lt;/span&gt;&lt;/span&gt;&lt;span id=&quot;page189R_mcid3&quot; class=&quot;markedContent&quot;&gt;&lt;br role=&quot;presentation&quot;&gt;&lt;/span&gt;&lt;/font&gt;" style="whiteSpace=wrap;html=1;fontSize=10;rounded=0;" vertex="1" parent="1">
          <mxGeometry x="604" y="675" width="202" height="60" as="geometry" />
        </mxCell>
        <mxCell id="QRhNImlcriRFlgjVjBWK-86" value="&lt;font style=&quot;font-size: 12px;&quot;&gt;&lt;span style=&quot;font-size: 12px;&quot; id=&quot;page189R_mcid2&quot; class=&quot;markedContent&quot;&gt;&lt;span dir=&quot;ltr&quot; role=&quot;presentation&quot; style=&quot;left: 536.437px; top: 246.351px; font-family: sans-serif;&quot;&gt;:&lt;/span&gt;&lt;span dir=&quot;ltr&quot; role=&quot;presentation&quot; style=&quot;left: 547.304px; top: 246.351px; font-family: sans-serif;&quot;&gt; &lt;/span&gt;&lt;span dir=&quot;ltr&quot; role=&quot;presentation&quot; style=&quot;left: 555.644px; top: 246.351px; font-family: sans-serif; transform: scaleX(1.23784);&quot;&gt;Cucurbitaceas&lt;/span&gt;&lt;br role=&quot;presentation&quot;&gt;&lt;span dir=&quot;ltr&quot; role=&quot;presentation&quot; style=&quot;left: 83.85px; top: 275.018px; font-family: sans-serif; transform: scaleX(1.26407);&quot;&gt;(calabaza, zapallo, pepino), Solanaceas (pimentÃ³n,&lt;/span&gt;&lt;br role=&quot;presentation&quot;&gt;&lt;font style=&quot;font-size: 12px;&quot;&gt;&lt;span dir=&quot;ltr&quot; role=&quot;presentation&quot; style=&quot;left: 83.85px; top: 303.254px; font-family: sans-serif; transform: scaleX(1.27597);&quot;&gt;tomate) espÃ¡rrago, maÃ­z dulce, guisantes, vainitas.&lt;/span&gt;&lt;/font&gt;&lt;/span&gt;&lt;span id=&quot;page189R_mcid3&quot; class=&quot;markedContent&quot;&gt;&lt;br role=&quot;presentation&quot;&gt;&lt;/span&gt;&lt;/font&gt;" style="shape=parallelogram;perimeter=parallelogramPerimeter;whiteSpace=wrap;html=1;fixedSize=1;fontSize=10;rounded=0;" vertex="1" parent="1">
          <mxGeometry x="947" y="661" width="180" height="60" as="geometry" />
        </mxCell>
        <mxCell id="QRhNImlcriRFlgjVjBWK-88" value="&lt;br&gt;&lt;font style=&quot;font-size: 12px;&quot;&gt;&lt;span id=&quot;page189R_mcid3&quot; class=&quot;markedContent&quot;&gt;&lt;span dir=&quot;ltr&quot; role=&quot;presentation&quot; style=&quot;left: 257.737px; top: 446.611px; font-family: sans-serif; transform: scaleX(1.25688);&quot;&gt;AjÃ­, berenjena, ocumo, camote y&lt;/span&gt;&lt;br role=&quot;presentation&quot;&gt;&lt;span dir=&quot;ltr&quot; role=&quot;presentation&quot; style=&quot;left: 83.85px; top: 475.278px; font-family: sans-serif; transform: scaleX(1.34246);&quot;&gt;patilla.&lt;/span&gt;&lt;/span&gt;&lt;/font&gt;&lt;br&gt;" style="shape=parallelogram;perimeter=parallelogramPerimeter;whiteSpace=wrap;html=1;fixedSize=1;fontSize=10;rounded=0;" vertex="1" parent="1">
          <mxGeometry x="1168" y="802" width="216" height="60" as="geometry" />
        </mxCell>
      </root>
    </mxGraphModel>
  </diagram>
</mxfile>
